<svg width="32" height="32" viewBox="0 0 32 32" fill="none" xmlns="http://www.w3.org/2000/svg">
<rect width="32" height="32" rx="12" fill="#FCFCFC"/>
<path d="M9.5 16C9.5 16.8833 9.5 18.5842 9.5 20.0245C9.5 21.3921 10.608 22.5 11.9756 22.5C13.3812 22.5 15.0455 22.5 16 22.5C19.5899 22.5 22.5 19.5899 22.5 16C22.5 12.4101 19.5899 9.5 16 9.5C12.4101 9.5 9.5 12.4101 9.5 16Z" stroke="#1D1D1D" stroke-width="1.4" stroke-linecap="square"/>
<path d="M12.8 15.5C13.2418 15.5 13.6 15.8582 13.6 16.3C13.6 16.7418 13.2418 17.1 12.8 17.1C12.3582 17.1 12 16.7418 12 16.3C12 15.8582 12.3582 15.5 12.8 15.5Z" fill="#1D1D1D"/>
<path d="M15.8 15.5C16.2418 15.5 16.6 15.8582 16.6 16.3C16.6 16.7418 16.2418 17.1 15.8 17.1C15.3582 17.1 15 16.7418 15 16.3C15 15.8582 15.3582 15.5 15.8 15.5Z" fill="#1D1D1D"/>
<path d="M18.8 15.5C19.2418 15.5 19.6 15.8582 19.6 16.3C19.6 16.7418 19.2418 17.1 18.8 17.1C18.3582 17.1 18 16.7418 18 16.3C18 15.8582 18.3582 15.5 18.8 15.5Z" fill="#1D1D1D"/>
</svg>
