<svg width="104" height="20" viewBox="0 0 104 20" fill="none" xmlns="http://www.w3.org/2000/svg">
<rect width="104" height="20" rx="8" fill="#FCFCFC" fill-opacity="0.2"/>
<path d="M13.5385 14.9373C14.3881 14.9373 15.0769 14.2486 15.0769 13.3989C15.0769 12.5492 14.3881 11.8604 13.5385 11.8604C12.6888 11.8604 12 12.5492 12 13.3989C12 14.2486 12.6888 14.9373 13.5385 14.9373Z" stroke="#FCFCFC" stroke-linecap="round" stroke-linejoin="round"/>
<path d="M20.4613 13.0143C21.311 13.0143 21.9998 12.3255 21.9998 11.4758C21.9998 10.6262 21.311 9.93738 20.4613 9.93738C19.6116 9.93738 18.9229 10.6262 18.9229 11.4758C18.9229 12.3255 19.6116 13.0143 20.4613 13.0143Z" stroke="#FCFCFC" stroke-linecap="round" stroke-linejoin="round"/>
<path d="M22.0002 11.4759V5.44508C21.9999 5.38623 21.9861 5.32824 21.9598 5.27557C21.9335 5.22291 21.8955 5.17697 21.8487 5.1413C21.8019 5.10563 21.7475 5.08119 21.6898 5.06984C21.632 5.05849 21.5725 5.06055 21.5156 5.07585L15.3618 6.78354C15.2804 6.80544 15.2086 6.85342 15.1571 6.92012C15.1057 6.98683 15.0776 7.06856 15.0771 7.15277V13.399" stroke="#FCFCFC" stroke-linecap="round" stroke-linejoin="round"/>
<path d="M15.0771 9.16813L22.0002 7.24506" stroke="#FCFCFC" stroke-linecap="round" stroke-linejoin="round"/>
<path d="M34.9009 7.288H35.9489V12.688C35.9489 12.8 35.8929 12.8907 35.7809 12.96C35.6743 13.024 35.5383 13.056 35.3729 13.056C35.1916 13.056 35.0503 13.032 34.9489 12.984C34.8529 12.936 34.7623 12.8533 34.6769 12.736L32.1489 9.16V13H31.0849V7.712C31.0849 7.55733 31.1409 7.44267 31.2529 7.368C31.3649 7.29333 31.5116 7.256 31.6929 7.256C31.9063 7.256 32.0609 7.288 32.1569 7.352C32.2583 7.416 32.3756 7.544 32.5089 7.736L34.9009 11.08V7.288ZM38.7878 13.104C38.1691 13.104 37.6785 12.912 37.3158 12.528C36.9531 12.144 36.7745 11.6347 36.7798 11C36.7851 10.36 36.9665 9.85067 37.3238 9.472C37.6865 9.088 38.1745 8.896 38.7878 8.896C39.4171 8.896 39.9105 9.08533 40.2678 9.464C40.6251 9.83733 40.8038 10.3493 40.8038 11C40.8038 11.64 40.6225 12.152 40.2598 12.536C39.9025 12.9147 39.4118 13.104 38.7878 13.104ZM38.7878 12.208C39.4225 12.208 39.7398 11.8053 39.7398 11C39.7398 10.1947 39.4225 9.792 38.7878 9.792C38.4838 9.792 38.2491 9.89333 38.0838 10.096C37.9238 10.2987 37.8438 10.6 37.8438 11C37.8438 11.8053 38.1585 12.208 38.7878 12.208ZM46.6701 8.896C47.0701 8.896 47.3875 9.01067 47.6221 9.24C47.8568 9.464 47.9741 9.78667 47.9741 10.208V13H46.8621V10.448C46.8621 10.2293 46.8221 10.0667 46.7421 9.96C46.6675 9.85333 46.5341 9.8 46.3421 9.8C45.9901 9.8 45.6515 9.944 45.3261 10.232V13H44.2141V10.448C44.2141 10.2293 44.1741 10.0667 44.0941 9.96C44.0141 9.85333 43.8781 9.8 43.6861 9.8C43.3608 9.8 43.0221 9.952 42.6701 10.256V13H41.5581V9H42.5901V9.504C43.0755 9.09867 43.5661 8.896 44.0621 8.896C44.6008 8.896 44.9715 9.09067 45.1741 9.48C45.6488 9.09067 46.1475 8.896 46.6701 8.896ZM50.7737 12.224C51.195 12.224 51.5977 12.0827 51.9817 11.8L52.4217 12.504C51.9204 12.8987 51.347 13.096 50.7017 13.096C50.0884 13.096 49.6004 12.9067 49.2377 12.528C48.875 12.144 48.6937 11.6533 48.6937 11.056C48.6937 10.4533 48.8804 9.944 49.2537 9.528C49.627 9.10667 50.1364 8.896 50.7817 8.896C51.251 8.896 51.6484 9.02133 51.9737 9.272C52.299 9.51733 52.4617 9.856 52.4617 10.288C52.4617 10.6187 52.3577 10.8933 52.1497 11.112C51.947 11.3253 51.6324 11.432 51.2057 11.432H49.7177C49.8297 11.96 50.1817 12.224 50.7737 12.224ZM50.7737 9.72C50.5124 9.72 50.2804 9.80533 50.0777 9.976C49.875 10.1467 49.747 10.3867 49.6937 10.696H50.9737C51.1337 10.696 51.2564 10.656 51.3417 10.576C51.4324 10.496 51.4777 10.3893 51.4777 10.256C51.4777 10.1067 51.411 9.98133 51.2777 9.88C51.1497 9.77333 50.9817 9.72 50.7737 9.72ZM57.6513 7.288H58.7313V13H57.7153V12.648C57.3686 12.952 56.9713 13.104 56.5233 13.104C56.0379 13.104 55.6299 12.9173 55.2993 12.544C54.9686 12.1707 54.8033 11.6773 54.8033 11.064C54.8033 10.408 54.9846 9.88267 55.3473 9.488C55.7153 9.09333 56.1766 8.896 56.7313 8.896C57.0726 8.896 57.3793 8.97867 57.6513 9.144V7.288ZM56.7793 12.208C57.1046 12.208 57.3953 12.0773 57.6513 11.816V10.104C57.4113 9.896 57.1473 9.792 56.8593 9.792C56.5766 9.792 56.3473 9.90133 56.1713 10.12C56.0006 10.3333 55.9153 10.6427 55.9153 11.048C55.9153 11.3947 55.9899 11.6747 56.1393 11.888C56.2886 12.1013 56.5019 12.208 56.7793 12.208ZM61.3229 8.896C61.8616 8.896 62.2909 9.04267 62.6109 9.336C62.9309 9.624 63.0909 10.032 63.0909 10.56V13H62.1309V12.48C61.8269 12.8907 61.3949 13.096 60.8349 13.096C60.4243 13.096 60.0909 12.984 59.8349 12.76C59.5843 12.5307 59.4589 12.2293 59.4589 11.856C59.4589 11.3973 59.6429 11.064 60.0109 10.856C60.3789 10.6427 60.8456 10.536 61.4109 10.536C61.6509 10.536 61.8776 10.552 62.0909 10.584V10.528C62.0909 10.2773 62.0136 10.088 61.8589 9.96C61.7043 9.82667 61.4989 9.76 61.2429 9.76C60.8269 9.76 60.4216 9.912 60.0269 10.216L59.5629 9.536C60.0163 9.10933 60.6029 8.896 61.3229 8.896ZM61.0989 12.288C61.3869 12.288 61.6189 12.1893 61.7949 11.992C61.9709 11.7947 62.0696 11.5387 62.0909 11.224C61.8829 11.208 61.6829 11.2 61.4909 11.2C60.8563 11.2 60.5389 11.3947 60.5389 11.784C60.5389 11.9333 60.5896 12.056 60.6909 12.152C60.7923 12.2427 60.9283 12.288 61.0989 12.288ZM71.3281 7.256C71.5041 7.256 71.6481 7.29333 71.7601 7.368C71.8775 7.43733 71.9361 7.544 71.9361 7.688V13H70.8161V9.312L69.4641 11.92H68.4321L67.0721 9.312V13H65.9521V7.696C65.9521 7.552 66.0108 7.44267 66.1281 7.368C66.2455 7.29333 66.3921 7.256 66.5681 7.256C66.7815 7.256 66.9335 7.29333 67.0241 7.368C67.1201 7.43733 67.2241 7.576 67.3361 7.784L68.9521 10.872L70.5681 7.784C70.6748 7.576 70.7735 7.43733 70.8641 7.368C70.9601 7.29333 71.1148 7.256 71.3281 7.256ZM75.9154 7.576L74.4034 8.68L73.9474 8.152L75.2994 6.84L75.9154 7.576ZM75.6514 9H76.7234V13H75.6914V12.56C75.2381 12.9173 74.7634 13.096 74.2674 13.096C73.8728 13.096 73.5581 12.984 73.3234 12.76C73.0941 12.536 72.9794 12.2107 72.9794 11.784V9H74.0674V11.536C74.0674 11.9733 74.2488 12.192 74.6114 12.192C74.9368 12.192 75.2834 12.0373 75.6514 11.728V9ZM79.0351 13.088C78.3418 13.088 77.7845 12.8853 77.3631 12.48L77.7951 11.792C78.1845 12.1067 78.5818 12.264 78.9871 12.264C79.1631 12.264 79.3098 12.2293 79.4271 12.16C79.5498 12.0907 79.6111 11.9947 79.6111 11.872C79.6111 11.8293 79.6031 11.7893 79.5871 11.752C79.5711 11.7147 79.5445 11.68 79.5071 11.648C79.4751 11.616 79.4431 11.5893 79.4111 11.568C79.3791 11.5467 79.3311 11.5227 79.2671 11.496C79.2031 11.4693 79.1498 11.4507 79.1071 11.44C79.0698 11.424 79.0085 11.4027 78.9231 11.376C78.8431 11.3493 78.7845 11.3307 78.7471 11.32C78.3738 11.192 78.0858 11.0427 77.8831 10.872C77.6858 10.7013 77.5871 10.4613 77.5871 10.152C77.5871 9.75733 77.7365 9.45067 78.0351 9.232C78.3391 9.008 78.7285 8.896 79.2031 8.896C79.7791 8.896 80.2805 9.05067 80.7071 9.36L80.2911 10.04C79.9231 9.816 79.5765 9.704 79.2511 9.704C79.0751 9.704 78.9338 9.73867 78.8271 9.808C78.7205 9.872 78.6671 9.95733 78.6671 10.064C78.6671 10.1493 78.7071 10.2267 78.7871 10.296C78.8671 10.36 78.9391 10.4053 79.0031 10.432C79.0725 10.4533 79.1951 10.4933 79.3711 10.552C79.5525 10.6107 79.6858 10.656 79.7711 10.688C79.8618 10.72 79.9818 10.776 80.1311 10.856C80.2805 10.9307 80.3898 11.008 80.4591 11.088C80.5338 11.1627 80.6005 11.264 80.6591 11.392C80.7178 11.5147 80.7471 11.6533 80.7471 11.808C80.7471 12.208 80.5818 12.5227 80.2511 12.752C79.9205 12.976 79.5151 13.088 79.0351 13.088ZM82.496 8.344C82.3787 8.46133 82.2213 8.52 82.024 8.52C81.8267 8.52 81.6693 8.46133 81.552 8.344C81.44 8.22667 81.384 8.06667 81.384 7.864C81.384 7.66133 81.44 7.50133 81.552 7.384C81.6693 7.26667 81.8267 7.208 82.024 7.208C82.2213 7.208 82.3787 7.26933 82.496 7.392C82.6133 7.50933 82.672 7.66667 82.672 7.864C82.672 8.06133 82.6133 8.22133 82.496 8.344ZM81.48 13V9H82.56V13H81.48ZM85.2869 13.096C84.7269 13.096 84.2575 12.912 83.8789 12.544C83.5055 12.176 83.3189 11.6667 83.3189 11.016C83.3189 10.3707 83.5055 9.856 83.8789 9.472C84.2575 9.088 84.7562 8.896 85.3749 8.896C85.7482 8.896 86.0842 8.976 86.3829 9.136C86.6815 9.29067 86.9109 9.528 87.0709 9.848L86.2469 10.312C86.0602 9.96533 85.7749 9.792 85.3909 9.792C85.1082 9.792 84.8735 9.89333 84.6869 10.096C84.5002 10.2987 84.4069 10.6027 84.4069 11.008C84.4069 11.408 84.4949 11.7067 84.6709 11.904C84.8522 12.096 85.0815 12.192 85.3589 12.192C85.7429 12.192 86.0655 11.984 86.3269 11.568L87.1189 12.024C86.9589 12.3547 86.7189 12.616 86.3989 12.808C86.0842 13 85.7135 13.096 85.2869 13.096ZM89.3307 8.896C89.8694 8.896 90.2988 9.04267 90.6188 9.336C90.9388 9.624 91.0988 10.032 91.0988 10.56V13H90.1388V12.48C89.8348 12.8907 89.4028 13.096 88.8428 13.096C88.4321 13.096 88.0988 12.984 87.8428 12.76C87.5921 12.5307 87.4668 12.2293 87.4668 11.856C87.4668 11.3973 87.6508 11.064 88.0188 10.856C88.3868 10.6427 88.8534 10.536 89.4188 10.536C89.6588 10.536 89.8854 10.552 90.0988 10.584V10.528C90.0988 10.2773 90.0214 10.088 89.8668 9.96C89.7121 9.82667 89.5068 9.76 89.2508 9.76C88.8348 9.76 88.4294 9.912 88.0348 10.216L87.5708 9.536C88.0241 9.10933 88.6108 8.896 89.3307 8.896ZM89.1068 12.288C89.3948 12.288 89.6268 12.1893 89.8028 11.992C89.9788 11.7947 90.0774 11.5387 90.0988 11.224C89.8908 11.208 89.6908 11.2 89.4988 11.2C88.8641 11.2 88.5468 11.3947 88.5468 11.784C88.5468 11.9333 88.5974 12.056 88.6988 12.152C88.8001 12.2427 88.9361 12.288 89.1068 12.288Z" fill="#FCFCFC"/>
</svg>
