<svg width="76" height="20" viewBox="0 0 76 20" fill="none" xmlns="http://www.w3.org/2000/svg">
<rect width="75.2" height="20" rx="8" fill="#FCFCFC" fill-opacity="0.2"/>
<path d="M19.2 14.5V13.4183C19.2 12.9561 18.9692 12.5244 18.5848 12.2678C16.857 11.1142 14.6158 11.0718 12.8456 12.1591L12.6938 12.2524C12.2627 12.5172 12 12.9868 12 13.4928V14.5M13.5429 7.55716C13.5429 8.6933 14.464 9.61432 15.6001 9.61432C16.7362 9.61432 17.6572 8.6933 17.6572 7.55716C17.6572 6.42102 16.7362 5.5 15.6001 5.5C14.464 5.5 13.5429 6.42102 13.5429 7.55716Z" stroke="#FCFCFC" stroke-linecap="square"/>
<path d="M29.2764 11.392C29.1004 11.6107 28.9938 11.8187 28.9564 12.016H31.4284V13H27.7244C27.7031 12.472 27.7404 12.0453 27.8364 11.72C27.9324 11.3947 28.1031 11.088 28.3484 10.8C28.5191 10.592 28.8178 10.32 29.2444 9.984C29.6764 9.648 29.9084 9.46667 29.9404 9.44C30.1804 9.232 30.3004 9.02133 30.3004 8.808C30.3004 8.62667 30.2311 8.47733 30.0924 8.36C29.9591 8.24267 29.7858 8.184 29.5724 8.184C29.3484 8.184 29.1324 8.256 28.9244 8.4C28.7164 8.544 28.5484 8.72533 28.4204 8.944L27.6044 8.384C27.7964 8.02133 28.0631 7.728 28.4044 7.504C28.7458 7.28 29.1458 7.168 29.6044 7.168C30.1538 7.168 30.5991 7.31467 30.9404 7.608C31.2818 7.896 31.4524 8.27733 31.4524 8.752C31.4524 9.19467 31.2791 9.59733 30.9324 9.96C30.7564 10.136 30.4711 10.3733 30.0764 10.672C29.6818 10.9707 29.4151 11.2107 29.2764 11.392ZM36.4226 7.288C37.0573 7.288 37.5426 7.46667 37.8786 7.824C38.22 8.176 38.3906 8.624 38.3906 9.168C38.3906 9.776 38.2146 10.2427 37.8626 10.568C37.5106 10.888 37.004 11.048 36.3426 11.048H35.3746V13H34.2226V7.752C34.2226 7.61867 34.268 7.50933 34.3586 7.424C34.4493 7.33333 34.5613 7.288 34.6946 7.288H36.4226ZM36.3026 10.096C36.9213 10.096 37.2306 9.784 37.2306 9.16C37.2306 8.872 37.148 8.648 36.9826 8.488C36.8226 8.328 36.5933 8.248 36.2946 8.248H35.3746V10.096H36.3026ZM40.8176 12.224C41.239 12.224 41.6416 12.0827 42.0256 11.8L42.4656 12.504C41.9643 12.8987 41.391 13.096 40.7456 13.096C40.1323 13.096 39.6443 12.9067 39.2816 12.528C38.919 12.144 38.7376 11.6533 38.7376 11.056C38.7376 10.4533 38.9243 9.944 39.2976 9.528C39.671 9.10667 40.1803 8.896 40.8256 8.896C41.295 8.896 41.6923 9.02133 42.0176 9.272C42.343 9.51733 42.5056 9.856 42.5056 10.288C42.5056 10.6187 42.4016 10.8933 42.1936 11.112C41.991 11.3253 41.6763 11.432 41.2496 11.432H39.7616C39.8736 11.96 40.2256 12.224 40.8176 12.224ZM40.8176 9.72C40.5563 9.72 40.3243 9.80533 40.1216 9.976C39.919 10.1467 39.791 10.3867 39.7376 10.696H41.0176C41.1776 10.696 41.3003 10.656 41.3856 10.576C41.4763 10.496 41.5216 10.3893 41.5216 10.256C41.5216 10.1067 41.455 9.98133 41.3216 9.88C41.1936 9.77333 41.0256 9.72 40.8176 9.72ZM44.6103 13.088C43.917 13.088 43.3597 12.8853 42.9383 12.48L43.3703 11.792C43.7597 12.1067 44.157 12.264 44.5623 12.264C44.7383 12.264 44.885 12.2293 45.0023 12.16C45.125 12.0907 45.1863 11.9947 45.1863 11.872C45.1863 11.8293 45.1783 11.7893 45.1623 11.752C45.1463 11.7147 45.1197 11.68 45.0823 11.648C45.0503 11.616 45.0183 11.5893 44.9863 11.568C44.9543 11.5467 44.9063 11.5227 44.8423 11.496C44.7783 11.4693 44.725 11.4507 44.6823 11.44C44.645 11.424 44.5837 11.4027 44.4983 11.376C44.4183 11.3493 44.3597 11.3307 44.3223 11.32C43.949 11.192 43.661 11.0427 43.4583 10.872C43.261 10.7013 43.1623 10.4613 43.1623 10.152C43.1623 9.75733 43.3117 9.45067 43.6103 9.232C43.9143 9.008 44.3037 8.896 44.7783 8.896C45.3543 8.896 45.8557 9.05067 46.2823 9.36L45.8663 10.04C45.4983 9.816 45.1517 9.704 44.8263 9.704C44.6503 9.704 44.509 9.73867 44.4023 9.808C44.2957 9.872 44.2423 9.95733 44.2423 10.064C44.2423 10.1493 44.2823 10.2267 44.3623 10.296C44.4423 10.36 44.5143 10.4053 44.5783 10.432C44.6477 10.4533 44.7703 10.4933 44.9463 10.552C45.1277 10.6107 45.261 10.656 45.3463 10.688C45.437 10.72 45.557 10.776 45.7063 10.856C45.8557 10.9307 45.965 11.008 46.0343 11.088C46.109 11.1627 46.1757 11.264 46.2343 11.392C46.293 11.5147 46.3223 11.6533 46.3223 11.808C46.3223 12.208 46.157 12.5227 45.8263 12.752C45.4957 12.976 45.0903 13.088 44.6103 13.088ZM48.3916 13.088C47.6982 13.088 47.1409 12.8853 46.7196 12.48L47.1516 11.792C47.5409 12.1067 47.9382 12.264 48.3436 12.264C48.5196 12.264 48.6662 12.2293 48.7836 12.16C48.9062 12.0907 48.9676 11.9947 48.9676 11.872C48.9676 11.8293 48.9596 11.7893 48.9436 11.752C48.9276 11.7147 48.9009 11.68 48.8636 11.648C48.8316 11.616 48.7996 11.5893 48.7676 11.568C48.7356 11.5467 48.6876 11.5227 48.6236 11.496C48.5596 11.4693 48.5062 11.4507 48.4636 11.44C48.4262 11.424 48.3649 11.4027 48.2796 11.376C48.1996 11.3493 48.1409 11.3307 48.1036 11.32C47.7302 11.192 47.4422 11.0427 47.2396 10.872C47.0422 10.7013 46.9436 10.4613 46.9436 10.152C46.9436 9.75733 47.0929 9.45067 47.3916 9.232C47.6956 9.008 48.0849 8.896 48.5596 8.896C49.1356 8.896 49.6369 9.05067 50.0636 9.36L49.6476 10.04C49.2796 9.816 48.9329 9.704 48.6076 9.704C48.4316 9.704 48.2902 9.73867 48.1836 9.808C48.0769 9.872 48.0236 9.95733 48.0236 10.064C48.0236 10.1493 48.0636 10.2267 48.1436 10.296C48.2236 10.36 48.2956 10.4053 48.3596 10.432C48.4289 10.4533 48.5516 10.4933 48.7276 10.552C48.9089 10.6107 49.0422 10.656 49.1276 10.688C49.2182 10.72 49.3382 10.776 49.4876 10.856C49.6369 10.9307 49.7462 11.008 49.8156 11.088C49.8902 11.1627 49.9569 11.264 50.0156 11.392C50.0742 11.5147 50.1036 11.6533 50.1036 11.808C50.1036 12.208 49.9382 12.5227 49.6076 12.752C49.2769 12.976 48.8716 13.088 48.3916 13.088ZM52.6364 13.104C52.0178 13.104 51.5271 12.912 51.1644 12.528C50.8018 12.144 50.6231 11.6347 50.6284 11C50.6338 10.36 50.8151 9.85067 51.1724 9.472C51.5351 9.088 52.0231 8.896 52.6364 8.896C53.2658 8.896 53.7591 9.08533 54.1164 9.464C54.4738 9.83733 54.6524 10.3493 54.6524 11C54.6524 11.64 54.4711 12.152 54.1084 12.536C53.7511 12.9147 53.2604 13.104 52.6364 13.104ZM52.6364 12.208C53.2711 12.208 53.5884 11.8053 53.5884 11C53.5884 10.1947 53.2711 9.792 52.6364 9.792C52.3324 9.792 52.0978 9.89333 51.9324 10.096C51.7724 10.2987 51.6924 10.6 51.6924 11C51.6924 11.8053 52.0071 12.208 52.6364 12.208ZM57.0388 8.896C57.5774 8.896 58.0068 9.04267 58.3268 9.336C58.6468 9.624 58.8068 10.032 58.8068 10.56V13H57.8468V12.48C57.5428 12.8907 57.1108 13.096 56.5508 13.096C56.1401 13.096 55.8068 12.984 55.5508 12.76C55.3001 12.5307 55.1748 12.2293 55.1748 11.856C55.1748 11.3973 55.3588 11.064 55.7268 10.856C56.0948 10.6427 56.5614 10.536 57.1268 10.536C57.3668 10.536 57.5934 10.552 57.8068 10.584V10.528C57.8068 10.2773 57.7294 10.088 57.5748 9.96C57.4201 9.82667 57.2148 9.76 56.9588 9.76C56.5428 9.76 56.1374 9.912 55.7428 10.216L55.2788 9.536C55.7321 9.10933 56.3188 8.896 57.0388 8.896ZM56.8148 12.288C57.1028 12.288 57.3348 12.1893 57.5108 11.992C57.6868 11.7947 57.7854 11.5387 57.8068 11.224C57.5988 11.208 57.3988 11.2 57.2068 11.2C56.5721 11.2 56.2548 11.3947 56.2548 11.784C56.2548 11.9333 56.3054 12.056 56.4068 12.152C56.5081 12.2427 56.6441 12.288 56.8148 12.288ZM61.0791 13.088C60.3857 13.088 59.8284 12.8853 59.4071 12.48L59.8391 11.792C60.2284 12.1067 60.6257 12.264 61.0311 12.264C61.2071 12.264 61.3537 12.2293 61.4711 12.16C61.5937 12.0907 61.6551 11.9947 61.6551 11.872C61.6551 11.8293 61.6471 11.7893 61.6311 11.752C61.6151 11.7147 61.5884 11.68 61.5511 11.648C61.5191 11.616 61.4871 11.5893 61.4551 11.568C61.4231 11.5467 61.3751 11.5227 61.3111 11.496C61.2471 11.4693 61.1937 11.4507 61.1511 11.44C61.1137 11.424 61.0524 11.4027 60.9671 11.376C60.8871 11.3493 60.8284 11.3307 60.7911 11.32C60.4177 11.192 60.1297 11.0427 59.9271 10.872C59.7297 10.7013 59.6311 10.4613 59.6311 10.152C59.6311 9.75733 59.7804 9.45067 60.0791 9.232C60.3831 9.008 60.7724 8.896 61.2471 8.896C61.8231 8.896 62.3244 9.05067 62.7511 9.36L62.3351 10.04C61.9671 9.816 61.6204 9.704 61.2951 9.704C61.1191 9.704 60.9777 9.73867 60.8711 9.808C60.7644 9.872 60.7111 9.95733 60.7111 10.064C60.7111 10.1493 60.7511 10.2267 60.8311 10.296C60.9111 10.36 60.9831 10.4053 61.0471 10.432C61.1164 10.4533 61.2391 10.4933 61.4151 10.552C61.5964 10.6107 61.7297 10.656 61.8151 10.688C61.9057 10.72 62.0257 10.776 62.1751 10.856C62.3244 10.9307 62.4337 11.008 62.5031 11.088C62.5777 11.1627 62.6444 11.264 62.7031 11.392C62.7617 11.5147 62.7911 11.6533 62.7911 11.808C62.7911 12.208 62.6257 12.5227 62.2951 12.752C61.9644 12.976 61.5591 13.088 61.0791 13.088Z" fill="#FCFCFC"/>
</svg>
