<svg width="50" height="20" viewBox="0 0 50 20" fill="none" xmlns="http://www.w3.org/2000/svg">
<rect width="50" height="20" rx="8" fill="#FCFCFC" fill-opacity="0.2"/>
<path d="M15.5445 13.088C15.1392 13.088 14.7525 13.016 14.3845 12.872C14.0218 12.7227 13.7232 12.5147 13.4885 12.248L14.0725 11.488C14.4938 11.9093 14.9845 12.12 15.5445 12.12C15.8698 12.12 16.1258 12.0507 16.3125 11.912C16.4992 11.768 16.5925 11.5893 16.5925 11.376C16.5925 11.3067 16.5818 11.2427 16.5605 11.184C16.5445 11.1253 16.5098 11.072 16.4565 11.024C16.4085 10.976 16.3658 10.9387 16.3285 10.912C16.2965 10.88 16.2325 10.8453 16.1365 10.808C16.0405 10.7653 15.9712 10.736 15.9285 10.72C15.8858 10.704 15.8005 10.6773 15.6725 10.64C15.5498 10.5973 15.4672 10.568 15.4245 10.552C15.1738 10.4667 14.9605 10.384 14.7845 10.304C14.6138 10.2187 14.4405 10.112 14.2645 9.984C14.0885 9.85067 13.9552 9.69067 13.8645 9.504C13.7738 9.312 13.7285 9.09333 13.7285 8.848C13.7285 8.32533 13.9178 7.91733 14.2965 7.624C14.6752 7.33067 15.1658 7.184 15.7685 7.184C16.4298 7.184 17.0218 7.36 17.5445 7.712L17.0725 8.52C16.6405 8.248 16.2165 8.112 15.8005 8.112C15.5178 8.112 15.2885 8.17333 15.1125 8.296C14.9365 8.41333 14.8485 8.57867 14.8485 8.792C14.8485 8.872 14.8592 8.944 14.8805 9.008C14.9018 9.072 14.9472 9.13333 15.0165 9.192C15.0858 9.24533 15.1418 9.29067 15.1845 9.328C15.2272 9.36 15.3098 9.4 15.4325 9.448C15.5552 9.496 15.6378 9.528 15.6805 9.544C15.7285 9.56 15.8325 9.59467 15.9925 9.648C16.2538 9.73333 16.4698 9.816 16.6405 9.896C16.8165 9.976 16.9952 10.08 17.1765 10.208C17.3632 10.336 17.5018 10.496 17.5925 10.688C17.6832 10.8747 17.7285 11.0907 17.7285 11.336C17.7285 11.8427 17.5232 12.2613 17.1125 12.592C16.7018 12.9227 16.1792 13.088 15.5445 13.088ZM20.3049 12.224C20.7263 12.224 21.1289 12.0827 21.5129 11.8L21.9529 12.504C21.4516 12.8987 20.8783 13.096 20.2329 13.096C19.6196 13.096 19.1316 12.9067 18.7689 12.528C18.4063 12.144 18.2249 11.6533 18.2249 11.056C18.2249 10.4533 18.4116 9.944 18.7849 9.528C19.1583 9.10667 19.6676 8.896 20.3129 8.896C20.7823 8.896 21.1796 9.02133 21.5049 9.272C21.8303 9.51733 21.9929 9.856 21.9929 10.288C21.9929 10.6187 21.8889 10.8933 21.6809 11.112C21.4783 11.3253 21.1636 11.432 20.7369 11.432H19.2489C19.3609 11.96 19.7129 12.224 20.3049 12.224ZM20.3049 9.72C20.0436 9.72 19.8116 9.80533 19.6089 9.976C19.4063 10.1467 19.2783 10.3867 19.2249 10.696H20.5049C20.6649 10.696 20.7876 10.656 20.8729 10.576C20.9636 10.496 21.0089 10.3893 21.0089 10.256C21.0089 10.1067 20.9423 9.98133 20.8089 9.88C20.6809 9.77333 20.5129 9.72 20.3049 9.72ZM26.5536 9.112C26.4203 9.27733 26.223 9.432 25.9616 9.576C26.1003 9.77867 26.1696 10.0187 26.1696 10.296C26.1696 10.7067 26.007 11.0347 25.6816 11.28C25.3616 11.52 24.927 11.64 24.3776 11.64C24.1696 11.64 23.967 11.6187 23.7696 11.576C23.6683 11.6293 23.6176 11.704 23.6176 11.8C23.6176 11.9013 23.671 11.9787 23.7776 12.032C23.8843 12.08 24.0576 12.1173 24.2976 12.144C25.0496 12.2293 25.5323 12.3173 25.7456 12.408C26.2043 12.5947 26.4336 12.9227 26.4336 13.392C26.4336 13.8293 26.2496 14.1573 25.8816 14.376C25.5136 14.6 24.999 14.712 24.3376 14.712C23.751 14.712 23.2816 14.6107 22.9296 14.408C22.583 14.2107 22.4096 13.928 22.4096 13.56C22.4096 13.1493 22.6283 12.856 23.0656 12.68C22.831 12.5147 22.7136 12.296 22.7136 12.024C22.7136 11.736 22.855 11.496 23.1376 11.304C22.807 11.0747 22.6416 10.744 22.6416 10.312C22.6416 9.88533 22.8016 9.54667 23.1216 9.296C23.447 9.04 23.8763 8.912 24.4096 8.912C24.7616 8.912 25.071 8.968 25.3376 9.08C25.6096 8.95733 25.8523 8.77867 26.0656 8.544L26.5536 9.112ZM24.3936 10.888C24.6443 10.888 24.8416 10.8373 24.9856 10.736C25.1296 10.6293 25.2016 10.48 25.2016 10.288C25.2016 10.096 25.1296 9.94667 24.9856 9.84C24.847 9.73333 24.6523 9.68 24.4016 9.68C24.151 9.68 23.9536 9.736 23.8096 9.848C23.671 9.95467 23.6016 10.1067 23.6016 10.304C23.6016 10.6933 23.8656 10.888 24.3936 10.888ZM25.4096 13.456C25.4096 13.3173 25.3403 13.2187 25.2016 13.16C25.063 13.1067 24.8416 13.064 24.5376 13.032C24.2016 13 23.9643 12.9733 23.8256 12.952C23.5483 13.0853 23.4096 13.248 23.4096 13.44C23.4096 13.776 23.735 13.944 24.3856 13.944C25.0683 13.944 25.4096 13.7813 25.4096 13.456ZM29.7452 9H30.8172V13H29.7852V12.56C29.3319 12.9173 28.8572 13.096 28.3612 13.096C27.9665 13.096 27.6519 12.984 27.4172 12.76C27.1879 12.536 27.0732 12.2107 27.0732 11.784V9H28.1612V11.536C28.1612 11.9733 28.3425 12.192 28.7052 12.192C29.0305 12.192 29.3772 12.0373 29.7452 11.728V9ZM32.7929 8.344C32.6755 8.46133 32.5182 8.52 32.3209 8.52C32.1235 8.52 31.9662 8.46133 31.8489 8.344C31.7369 8.22667 31.6809 8.06667 31.6809 7.864C31.6809 7.66133 31.7369 7.50133 31.8489 7.384C31.9662 7.26667 32.1235 7.208 32.3209 7.208C32.5182 7.208 32.6755 7.26933 32.7929 7.392C32.9102 7.50933 32.9689 7.66667 32.9689 7.864C32.9689 8.06133 32.9102 8.22133 32.7929 8.344ZM31.7769 13V9H32.8569V13H31.7769ZM36.0878 8.896C36.3278 8.896 36.5304 8.944 36.6958 9.04L36.4718 9.904C36.2851 9.84533 36.1224 9.816 35.9838 9.816C35.5998 9.816 35.2478 9.96533 34.9278 10.264V13H33.8238V9H34.8878V9.464C35.2504 9.08533 35.6504 8.896 36.0878 8.896Z" fill="#FCFCFC"/>
</svg>
