<svg width="100" height="24" viewBox="0 0 100 24" fill="none" xmlns="http://www.w3.org/2000/svg">
<path d="M15.427 16.3131V17.5652C14.625 17.21 13.941 16.6485 13.4461 15.9507C13.1071 15.4727 12.8573 14.931 12.7191 14.348C12.6392 14.0087 12.5967 13.6561 12.5967 13.2937C12.5967 12.8052 12.6737 12.3336 12.8167 11.8906C12.8122 11.9738 12.8096 12.058 12.8096 12.1424C12.8096 12.6783 12.9022 13.1931 13.0728 13.673C13.401 14.5967 14.018 15.3898 14.8192 15.951C15.0115 16.0856 15.2149 16.2071 15.427 16.3136V16.3131Z" fill="#4576F2"/>
<path d="M23.9175 12.0069C23.9175 13.4592 22.9886 14.6944 21.6936 15.1482C21.516 15.2107 21.3314 15.2585 21.1414 15.2895C20.9641 15.3192 20.7817 15.3345 20.5963 15.3345C20.472 15.3345 20.3493 15.3276 20.2285 15.3139C19.9853 15.2874 19.7502 15.2341 19.5257 15.1576C19.5275 15.1139 19.5283 15.0699 19.5283 15.026C19.5283 13.5135 18.5992 12.2214 17.2889 11.7048C17.2562 11.6957 17.2054 11.6702 17.1542 11.6547C16.7976 11.5307 16.1655 11.467 16.0169 11.4637C16.0014 11.4634 15.5362 11.3491 15.344 11.2802C14.6196 11.0225 13.9515 10.6447 13.3641 10.1703C13.2771 10.0999 13.1921 10.0277 13.1087 9.95299C12.7693 9.65086 12.4609 9.31443 12.1877 8.94978C11.6261 9.93826 11.3058 11.082 11.3058 12.3002C11.3058 13.3908 11.5627 14.4215 12.0188 15.3345C12.2503 15.7982 12.5765 16.6688 14.2691 18.1164C14.6536 18.4452 15.0221 18.5807 15.2768 18.6038C15.3204 18.6079 15.3539 18.6439 15.3536 18.6879L15.344 20.5525H15.3437C15.344 20.5576 15.344 20.5622 15.344 20.5673C15.344 22.4047 13.8569 23.8945 12.0228 23.8945C10.1888 23.8945 8.70169 22.4047 8.70169 20.5673C8.70169 20.5622 8.70169 20.5576 8.70194 20.5525H8.70169V15.3345H3.99061C3.52239 15.3345 3.67051 15.3477 3.50768 15.3345C1.41085 15.1645 -0.245158 13.4246 0.286976 11.1669C0.631417 9.70524 1.94552 8.67967 3.44452 8.67967H3.96118H4.28305H8.70144L8.76003 2.90459L8.77879 2.78745C9.07834 1.25875 10.4236 0.105103 12.0373 0.105103C12.2752 0.105103 12.5073 0.130005 12.7307 0.178031C14.0251 0.452974 15.0404 1.48363 15.2958 2.78745C15.3173 2.89672 15.3336 3.08475 15.3437 3.19783V8.67992H20.5961C20.7964 8.67992 20.9928 8.69771 21.1838 8.73176H21.184C21.359 8.76301 21.5292 8.80824 21.6936 8.86593C22.0484 8.98993 22.3759 9.17314 22.6642 9.40336C23.4279 10.0132 23.9175 10.9529 23.9175 12.0072V12.0069Z" fill="#4576F2"/>
<path opacity="0.06" d="M12.0381 0.105103C12.2759 0.105118 12.5081 0.130334 12.7314 0.178345C14.0257 0.45335 15.0405 1.48397 15.2959 2.78772C15.3174 2.89701 15.3346 3.08486 15.3447 3.19788V3.84631H8.75098L8.76074 2.90491L8.7793 2.78772C9.07884 1.25902 10.4244 0.105103 12.0381 0.105103Z" fill="black"/>
<path opacity="0.06" d="M15.3447 20.5522V20.5679C15.3445 22.4051 13.8573 23.895 12.0234 23.895C10.1895 23.895 8.70239 22.4051 8.70215 20.5679V20.3091H15.3457L15.3447 20.5522Z" fill="black"/>
<path opacity="0.06" d="M3.73229 15.3359C3.35119 15.3372 3.4748 15.3474 3.32116 15.335C1.22433 15.165 -0.431681 13.4247 0.100452 11.167C0.444887 9.70544 1.75876 8.67977 3.25768 8.67969H3.73229V15.3359Z" fill="black"/>
<path opacity="0.06" d="M23.917 12.0339C23.917 13.4821 22.9862 14.7141 21.6875 15.1667C21.5095 15.2291 21.3243 15.2765 21.1338 15.3074C20.956 15.337 20.7728 15.3523 20.5869 15.3523C20.4685 15.3523 20.3516 15.3451 20.2363 15.3328V8.71655H20.5869C20.7877 8.71655 20.9844 8.7344 21.1758 8.76831H21.1768C21.3522 8.79948 21.5228 8.84461 21.6875 8.9021C22.0433 9.02576 22.372 9.20866 22.6611 9.43823C23.4266 10.0463 23.9168 10.983 23.917 12.0339Z" fill="black"/>
<path d="M35.9653 7.80404C35.5672 8.20364 35.0291 8.40344 34.351 8.40344C33.6729 8.40344 33.1348 8.20364 32.7367 7.80404C32.3387 7.38964 32.1396 6.83465 32.1396 6.13905C32.1396 5.44346 32.3387 4.89586 32.7367 4.49626C33.1348 4.08187 33.6729 3.87467 34.351 3.87467C35.0291 3.87467 35.5672 4.08187 35.9653 4.49626C36.3633 4.89586 36.5623 5.44346 36.5623 6.13905C36.5623 6.83465 36.3633 7.38964 35.9653 7.80404ZM32.3829 20.5911V9.49123H36.3191V20.5911H32.3829ZM43.6473 20.8353C42.5269 20.8353 41.4359 20.6503 40.3745 20.2803C39.3278 19.8956 38.4433 19.3628 37.7209 18.682L39.5563 15.8182C40.7946 16.8838 42.1436 17.4166 43.6031 17.4166C44.4286 17.4166 45.0331 17.276 45.4164 16.9948C45.8144 16.6988 46.0134 16.351 46.0134 15.9514C46.0134 15.7738 45.9692 15.6184 45.8807 15.4852C45.807 15.3372 45.7186 15.2188 45.6154 15.13C45.5122 15.0264 45.35 14.9302 45.1289 14.8414C44.9225 14.7378 44.7456 14.6638 44.5982 14.6194C44.4655 14.575 44.2517 14.5084 43.9569 14.4196C43.662 14.3308 43.4483 14.2642 43.3156 14.2198C42.608 13.9978 41.9961 13.7684 41.4802 13.5316C40.9642 13.28 40.4556 12.9618 39.9543 12.577C39.4531 12.1922 39.0698 11.726 38.8044 11.1784C38.5391 10.6308 38.4064 10.0018 38.4064 9.29143C38.4064 7.76704 38.9519 6.58305 40.0428 5.73946C41.1485 4.88106 42.5932 4.45186 44.377 4.45186C46.3525 4.45186 48.0995 4.93286 49.6179 5.89485L48.0921 8.80303C46.898 8.09264 45.726 7.73744 44.5761 7.73744C43.8979 7.73744 43.3746 7.86324 43.006 8.11484C42.6374 8.35164 42.4532 8.67723 42.4532 9.09163C42.4532 9.55043 42.6669 9.90563 43.0944 10.1572C43.5367 10.4088 44.2443 10.69 45.2173 11.0008C46.7653 11.4892 47.952 12.096 48.7776 12.8212C49.6179 13.5316 50.0381 14.5232 50.0381 15.796C50.0381 17.1872 49.4558 18.3786 48.2911 19.3702C47.1412 20.347 45.5933 20.8353 43.6473 20.8353ZM56.4897 9.20263C58.0082 9.20263 59.2391 9.60963 60.1826 10.4236C61.1262 11.2376 61.5979 12.3698 61.5979 13.8202V20.5911H58.1924V19.4146C57.3521 20.3617 56.2464 20.8353 54.8754 20.8353C53.7255 20.8353 52.8041 20.5245 52.1112 19.903C51.4183 19.2814 51.0719 18.4452 51.0719 17.3944C51.0719 16.5212 51.3372 15.796 51.868 15.2188C52.4134 14.6416 53.0768 14.242 53.8582 14.02C54.6395 13.798 55.5241 13.687 56.5118 13.687C57.0868 13.687 57.5806 13.7166 57.9934 13.7758C57.9934 13.243 57.8091 12.8508 57.4406 12.5992C57.0868 12.3328 56.6371 12.1996 56.0917 12.1996C55.0449 12.1996 53.9614 12.5918 52.841 13.3762L51.3594 11.0008C51.9638 10.4532 52.723 10.0166 53.6371 9.69103C54.5658 9.36543 55.5167 9.20263 56.4897 9.20263ZM55.9811 17.9716C56.4971 17.9716 56.9393 17.794 57.3079 17.4388C57.6912 17.0688 57.9123 16.573 57.9713 15.9514H56.7329C55.5241 15.9514 54.9196 16.3066 54.9196 17.017C54.9196 17.2982 55.0081 17.5276 55.185 17.7052C55.3766 17.8828 55.642 17.9716 55.9811 17.9716ZM72.2775 5.62846L67.9433 8.75863L66.2848 6.89385L70.0883 3.11987L72.2775 5.62846ZM70.7075 9.49123H74.5552V20.5911H70.9065V19.7254C69.7566 20.4653 68.5404 20.8353 67.2578 20.8353C66.1669 20.8353 65.2823 20.5171 64.6042 19.8808C63.926 19.2444 63.5869 18.2972 63.5869 17.0392V9.49123H67.5231V16.129C67.5231 17.165 67.9359 17.683 68.7615 17.683C69.4396 17.683 70.0883 17.461 70.7075 17.017V9.49123ZM83.7505 4.74046H87.6203V20.5911H84.0601V19.792C83.1313 20.5171 82.1288 20.8797 81.0526 20.8797C79.7258 20.8797 78.5833 20.3617 77.625 19.3258C76.6815 18.2898 76.2098 16.9134 76.2098 15.1966C76.2098 13.391 76.7331 11.9406 77.7798 10.8454C78.8413 9.75023 80.146 9.20263 81.6939 9.20263C82.4163 9.20263 83.1018 9.34323 83.7505 9.62443V4.74046ZM80.2344 15.1744C80.2344 15.8848 80.3745 16.4916 80.6546 16.9948C80.9494 17.4832 81.4138 17.7274 82.0477 17.7274C82.6816 17.7274 83.2492 17.498 83.7505 17.0392V12.8878C83.264 12.5326 82.7627 12.355 82.2467 12.355C81.6718 12.355 81.1927 12.6066 80.8094 13.1098C80.4261 13.613 80.2344 14.3012 80.2344 15.1744ZM95.334 17.8384C96.3659 17.8384 97.4347 17.5054 98.5404 16.8394L99.9557 19.348C98.5257 20.3543 96.8966 20.8575 95.0686 20.8575C93.1963 20.8575 91.7589 20.3025 90.7565 19.1926C89.754 18.0826 89.2527 16.7432 89.2527 15.1744C89.2527 13.5168 89.7835 12.1108 90.8449 10.9564C91.9211 9.78723 93.3364 9.20263 95.0907 9.20263C96.506 9.20263 97.678 9.55783 98.6067 10.2682C99.5355 10.9638 99.9999 11.9036 99.9999 13.0876C99.9999 14.0644 99.6903 14.8858 99.0711 15.5518C98.4667 16.2178 97.479 16.5508 96.1079 16.5508H92.8794C93.2479 17.4092 94.0661 17.8384 95.334 17.8384ZM95.157 12.133C94.6411 12.133 94.1546 12.2958 93.6976 12.6214C93.2405 12.947 92.9236 13.4206 92.7467 14.0422H95.1349C95.5919 14.0422 95.931 13.946 96.1522 13.7536C96.3733 13.5464 96.4839 13.317 96.4839 13.0654C96.4839 12.799 96.3585 12.577 96.1079 12.3994C95.872 12.2218 95.5551 12.133 95.157 12.133Z" fill="#4576F2"/>
</svg>
