<svg width="201" height="48" viewBox="0 0 201 48" fill="none" xmlns="http://www.w3.org/2000/svg">
<path d="M31.353 32.6265V35.1306C29.7491 34.4203 28.381 33.2974 27.3912 31.9018C26.7133 30.9457 26.2137 29.8623 25.9372 28.6964C25.7773 28.0178 25.6924 27.3126 25.6924 26.5879C25.6924 25.6109 25.8464 24.6676 26.1324 23.7817C26.1234 23.9481 26.1182 24.1164 26.1182 24.2853C26.1182 25.357 26.3033 26.3867 26.6447 27.3463C27.301 29.1939 28.5351 30.7799 30.1374 31.9023C30.522 32.1715 30.9288 32.4146 31.353 32.6275V32.6265Z" fill="#FCFCFC"/>
<path d="M48.335 24.0142C48.335 26.9186 46.4773 29.389 43.8872 30.2966C43.5321 30.4216 43.1628 30.5172 42.7828 30.5792C42.4282 30.6386 42.0635 30.6691 41.6927 30.6691C41.4441 30.6691 41.1986 30.6554 40.9571 30.628C40.4707 30.5751 40.0004 30.4684 39.5515 30.3154C39.555 30.228 39.5565 30.1401 39.5565 30.0522C39.5565 27.0273 37.6984 24.4431 35.0778 23.4099C35.0123 23.3916 34.9109 23.3408 34.8084 23.3098C34.0952 23.0618 32.8311 22.9343 32.5338 22.9276C32.5028 22.9271 31.5725 22.6984 31.188 22.5607C29.7392 22.0454 28.403 21.2897 27.2282 20.3409C27.0542 20.2001 26.8842 20.0558 26.7173 19.9064C26.0386 19.3021 25.4218 18.6293 24.8754 17.9C23.7523 19.8769 23.1116 22.1643 23.1116 24.6007C23.1116 26.7819 23.6255 28.8431 24.5376 30.6691C25.0007 31.5966 25.6531 33.3377 29.0381 36.2329C29.8072 36.8905 30.5442 37.1614 31.0536 37.2077C31.1408 37.2158 31.2078 37.288 31.2073 37.3759L31.188 41.1051H31.1875C31.188 41.1152 31.188 41.1244 31.188 41.1346C31.188 44.8094 28.2138 47.789 24.5457 47.789C20.8776 47.789 17.9034 44.8094 17.9034 41.1346C17.9034 41.1244 17.9034 41.1152 17.9039 41.1051H17.9034V30.6691H8.48122C7.54479 30.6691 7.84103 30.6955 7.51536 30.6691C3.3217 30.3291 0.00968349 26.8495 1.07395 22.3341C1.76283 19.4109 4.39104 17.3598 7.38905 17.3598H8.42238H9.06611H17.9029L18.0201 5.80982L18.0576 5.57554C18.6567 2.51818 21.3473 0.210938 24.5746 0.210938C25.0504 0.210938 25.5146 0.260742 25.9615 0.356792C28.5501 0.906669 30.5808 2.96794 31.0916 5.57554C31.1347 5.79406 31.1672 6.17014 31.1875 6.39629V17.3603H41.6922C42.0929 17.3603 42.4856 17.3958 42.8675 17.4639H42.868C43.2181 17.5265 43.5585 17.6169 43.8872 17.7323C44.5969 17.9803 45.2517 18.3467 45.8285 18.8071C47.3559 20.0268 48.335 21.9062 48.335 24.0147V24.0142Z" fill="#FCFCFC"/>
<path opacity="0.06" d="M24.5747 0.210938C25.0505 0.210938 25.5155 0.260395 25.9624 0.356445C28.5508 0.906405 30.5814 2.96785 31.0923 5.5752C31.1354 5.79372 31.1677 6.17033 31.188 6.39648V7.69336H18.0015L18.021 5.80957L18.0581 5.5752C18.6573 2.51813 21.3477 0.21112 24.5747 0.210938Z" fill="black"/>
<path opacity="0.06" d="M31.1882 41.1055V41.1348C31.1882 44.8095 28.2146 47.7889 24.5466 47.7891C20.8785 47.7891 17.904 44.8096 17.904 41.1348C17.904 41.1247 17.9035 41.1156 17.904 41.1055V40.6182H31.1911L31.1882 41.1055Z" fill="black"/>
<path opacity="0.06" d="M7.96504 30.6709C7.20282 30.6734 7.45022 30.6939 7.14278 30.6689C2.94914 30.329 -0.362823 26.8493 0.70137 22.334C1.39022 19.4109 4.01799 17.3596 7.01582 17.3594H7.96504V30.6709Z" fill="black"/>
<path opacity="0.06" d="M41.6743 17.4336C42.0762 17.4336 42.471 17.4692 42.854 17.5371C43.2049 17.5994 43.546 17.6897 43.8755 17.8047C44.5871 18.052 45.2444 18.4168 45.8228 18.876C47.3543 20.0923 48.3354 21.9667 48.3354 24.0693L48.3306 24.3389C48.219 27.1176 46.3918 29.4571 43.8755 30.334C43.5194 30.4586 43.149 30.5544 42.7681 30.6162C42.4126 30.6755 42.047 30.7051 41.6753 30.7051C41.4382 30.7051 41.2038 30.6917 40.9731 30.667V17.4336H41.6743Z" fill="black"/>
<path d="M72.4311 15.6089C71.635 16.4081 70.5588 16.8077 69.2025 16.8077C67.8462 16.8077 66.77 16.4081 65.9739 15.6089C65.1778 14.7801 64.7798 13.6701 64.7798 12.279C64.7798 10.8878 65.1778 9.79264 65.9739 8.99346C66.77 8.16468 67.8462 7.75029 69.2025 7.75029C70.5588 7.75029 71.635 8.16468 72.4311 8.99346C73.2271 9.79264 73.6252 10.8878 73.6252 12.279C73.6252 13.6701 73.2271 14.7801 72.4311 15.6089ZM65.2663 41.1827V18.9832H73.1387V41.1827H65.2663ZM87.7951 41.6711C85.5542 41.6711 83.3724 41.3011 81.2495 40.5611C79.1561 39.7915 77.387 38.7259 75.9423 37.3644L79.6131 31.6369C82.0898 33.768 84.7876 34.8336 87.7066 34.8336C89.3578 34.8336 90.5666 34.5524 91.3332 33.99C92.1293 33.3981 92.5274 32.7025 92.5274 31.9033C92.5274 31.5481 92.4389 31.2373 92.262 30.9709C92.1146 30.6749 91.9377 30.4381 91.7313 30.2605C91.5249 30.0533 91.2006 29.8609 90.7583 29.6833C90.3455 29.4762 89.9917 29.3282 89.6968 29.2394C89.4315 29.1506 89.004 29.0174 88.4143 28.8398C87.8246 28.6622 87.397 28.529 87.1317 28.4402C85.7164 27.9962 84.4928 27.5374 83.4608 27.0638C82.4289 26.5606 81.4116 25.9242 80.4092 25.1547C79.4067 24.3851 78.6401 23.4527 78.1094 22.3575C77.5787 21.2624 77.3133 20.0044 77.3133 18.5836C77.3133 15.5349 78.4042 13.167 80.5861 11.4798C82.7974 9.76304 85.6869 8.90466 89.2546 8.90466C93.2055 8.90466 96.6995 9.86664 99.7364 11.7906L96.6847 17.6068C94.2965 16.1861 91.9524 15.4757 89.6526 15.4757C88.2963 15.4757 87.2496 15.7273 86.5125 16.2305C85.7754 16.7041 85.4068 17.3553 85.4068 18.184C85.4068 19.1016 85.8344 19.812 86.6894 20.3152C87.5739 20.8184 88.9892 21.3808 90.9352 22.0023C94.0311 22.9791 96.4046 24.1927 98.0558 25.643C99.7364 27.0638 100.577 29.047 100.577 31.5925C100.577 34.3748 99.412 36.7576 97.0828 38.7407C94.7829 40.6943 91.6871 41.6711 87.7951 41.6711ZM113.48 18.406C116.517 18.406 118.979 19.22 120.866 20.848C122.753 22.4759 123.696 24.7403 123.696 27.641V41.1827H116.885V38.8295C115.205 40.7239 112.993 41.6711 110.251 41.6711C107.952 41.6711 106.109 41.0495 104.723 39.8063C103.337 38.5631 102.644 36.8908 102.644 34.7892C102.644 33.0429 103.175 31.5925 104.236 30.4381C105.327 29.2838 106.654 28.4846 108.217 28.0406C109.78 27.5966 111.549 27.3746 113.524 27.3746C114.674 27.3746 115.662 27.4338 116.487 27.5522C116.487 26.4866 116.119 25.7022 115.382 25.1991C114.674 24.6663 113.775 24.3999 112.684 24.3999C110.59 24.3999 108.423 25.1843 106.182 26.753L103.219 22.0023C104.428 20.9072 105.947 20.034 107.775 19.3828C109.632 18.7316 111.534 18.406 113.48 18.406ZM112.463 35.9436C113.495 35.9436 114.379 35.5884 115.116 34.878C115.883 34.138 116.325 33.1465 116.443 31.9033H113.966C111.549 31.9033 110.34 32.6137 110.34 34.0344C110.34 34.5968 110.517 35.0556 110.871 35.4108C111.254 35.766 111.785 35.9436 112.463 35.9436ZM145.056 11.2578L136.387 17.518L133.07 13.7885L140.677 6.24072L145.056 11.2578ZM141.916 18.9832H149.611V41.1827H142.314V39.4511C140.014 40.9311 137.581 41.6711 135.016 41.6711C132.834 41.6711 131.065 41.0347 129.709 39.7619C128.353 38.4891 127.674 36.5948 127.674 34.0788V18.9832H135.547V32.2585C135.547 34.3304 136.372 35.3664 138.024 35.3664C139.38 35.3664 140.677 34.9224 141.916 34.0344V18.9832ZM168.002 9.48185H175.741V41.1827H168.621V39.5843C166.763 41.0347 164.758 41.7598 162.606 41.7598C159.952 41.7598 157.667 40.7239 155.751 38.6519C153.864 36.58 152.92 33.8272 152.92 30.3937C152.92 26.7826 153.967 23.8819 156.06 21.6915C158.183 19.5012 160.793 18.406 163.888 18.406C165.333 18.406 166.704 18.6872 168.002 19.2496V9.48185ZM160.969 30.3493C160.969 31.7701 161.25 32.9837 161.81 33.99C162.399 34.9668 163.328 35.4552 164.596 35.4552C165.864 35.4552 166.999 34.9964 168.002 34.0788V25.7762C167.029 25.0659 166.026 24.7107 164.994 24.7107C163.844 24.7107 162.886 25.2139 162.119 26.2202C161.353 27.2266 160.969 28.603 160.969 30.3493ZM191.169 35.6772C193.232 35.6772 195.37 35.0112 197.581 33.6792L200.412 38.6963C197.552 40.7091 194.294 41.7154 190.638 41.7154C186.893 41.7154 184.018 40.6055 182.014 38.3855C180.009 36.1656 179.006 33.4869 179.006 30.3493C179.006 27.0342 180.068 24.2223 182.19 21.9135C184.343 19.5752 187.173 18.406 190.682 18.406C193.513 18.406 195.857 19.1164 197.714 20.5372C199.572 21.9283 200.5 23.8079 200.5 26.1758C200.5 28.1294 199.881 29.7721 198.643 31.1041C197.434 32.4361 195.459 33.1021 192.716 33.1021H186.259C186.996 34.8188 188.633 35.6772 191.169 35.6772ZM190.815 24.2667C189.783 24.2667 188.81 24.5923 187.896 25.2435C186.982 25.8946 186.348 26.8418 185.994 28.085H190.77C191.685 28.085 192.363 27.8926 192.805 27.5078C193.247 27.0934 193.468 26.6346 193.468 26.1314C193.468 25.5986 193.218 25.1547 192.716 24.7995C192.245 24.4443 191.611 24.2667 190.815 24.2667Z" fill="#FCFCFC"/>
</svg>
