<svg width="15" height="14" viewBox="0 0 15 14" fill="none" xmlns="http://www.w3.org/2000/svg">
<path d="M5.92752 7.93795L5.74221 7.26293L5.92752 7.93795ZM3.37307 7.91399L3.19932 8.59208L3.19932 8.59208L3.37307 7.91399ZM6.68174 0.812577L5.99432 0.680478L5.73012 2.05532L6.41754 2.18742L6.68174 0.812577ZM3.10508 2.19464L3.79627 2.08395L3.5749 0.701563L2.88371 0.81225L3.10508 2.19464ZM2.10234 1.88615L1.67574 1.33116L1.67574 1.33116L2.10234 1.88615ZM7.31467 1.86246L7.76513 1.32666L7.76513 1.32666L7.31467 1.86246ZM8.66232 12.4788L8.73663 13.1749L8.66232 12.4788ZM7.87967 3.05883H7.17967V5.45129H7.87967H8.57967V3.05883H7.87967ZM1.375 5.41515H2.075V3.3402H1.375H0.675V5.41515H1.375ZM5.92752 7.93795L5.74221 7.26293L4.55418 7.58907L4.73949 8.26409L4.9248 8.93912L6.11283 8.61298L5.92752 7.93795ZM4.73949 8.26409L4.91323 7.586L3.54681 7.23589L3.37307 7.91399L3.19932 8.59208L4.56574 8.94219L4.73949 8.26409ZM4.73949 8.26409H4.03949V9.10526H4.73949H5.43949V8.26409H4.73949ZM2.10234 1.88615L2.52894 2.44114C2.6937 2.31449 2.89187 2.22878 3.10508 2.19464L2.99439 1.50344L2.88371 0.81225C2.44394 0.882673 2.0279 1.06047 1.67574 1.33116L2.10234 1.88615ZM6.54964 1.5L6.41754 2.18742C6.58573 2.21974 6.73947 2.29339 6.8642 2.39826L7.31467 1.86246L7.76513 1.32666C7.45455 1.06555 7.08075 0.889253 6.68174 0.812577L6.54964 1.5ZM8.66232 12.4788L8.73663 13.1749C10.8592 12.9483 12.5049 11.2147 12.5049 9.10526H11.8049H11.1049C11.1049 10.455 10.0436 11.6274 8.58801 11.7828L8.66232 12.4788ZM1.375 3.3402H2.075C2.075 2.99824 2.23654 2.6659 2.52894 2.44114L2.10234 1.88615L1.67574 1.33116C1.0487 1.81314 0.675 2.55081 0.675 3.3402H1.375ZM1.375 5.41515H0.675C0.675 6.92347 1.72816 8.21514 3.19932 8.59208L3.37307 7.91399L3.54681 7.23589C2.66148 7.00905 2.075 6.25015 2.075 5.41515H1.375ZM4.73949 9.10526H4.03949C4.03949 11.5747 6.2611 13.4392 8.73663 13.1749L8.66232 12.4788L8.58801 11.7828C6.87823 11.9653 5.43949 10.682 5.43949 9.10526H4.73949ZM7.87967 5.45129H7.17967C7.17967 6.27431 6.60986 7.02473 5.74221 7.26293L5.92752 7.93795L6.11283 8.61298C7.55619 8.21674 8.57967 6.93762 8.57967 5.45129H7.87967ZM7.87967 3.05883H8.57967C8.57967 2.38825 8.27813 1.75795 7.76513 1.32666L7.31467 1.86246L6.8642 2.39826C7.06931 2.57069 7.17967 2.81259 7.17967 3.05883H7.87967ZM13.375 5.67793H12.675C12.675 6.09841 12.3121 6.48653 11.8049 6.48653V7.18653V7.88653C13.032 7.88653 14.075 6.9238 14.075 5.67793H13.375ZM11.8049 7.18653V6.48653C11.2977 6.48653 10.9348 6.09841 10.9348 5.67793H10.2348H9.53481C9.53481 6.9238 10.5778 7.88653 11.8049 7.88653V7.18653ZM10.2348 5.67793H10.9348C10.9348 5.25746 11.2977 4.86934 11.8049 4.86934V4.16934V3.46934C10.5778 3.46934 9.53481 4.43206 9.53481 5.67793H10.2348ZM11.8049 4.16934V4.86934C12.3121 4.86934 12.675 5.25746 12.675 5.67793H13.375H14.075C14.075 4.43206 13.032 3.46934 11.8049 3.46934V4.16934ZM11.8049 9.10526H12.5049V7.18653H11.8049H11.1049V9.10526H11.8049Z" fill="#1D1D1D"/>
</svg>
