<svg width="50" height="20" viewBox="0 0 50 20" fill="none" xmlns="http://www.w3.org/2000/svg">
<rect width="50" height="20" rx="10" fill="#4576F2"/>
<path d="M20.5616 8.256H18.0416V9.608H20.2256V10.576H18.0416V13H16.8896V7.752C16.8896 7.61333 16.9376 7.50133 17.0336 7.416C17.1296 7.33067 17.2443 7.288 17.3776 7.288H20.5616V8.256ZM22.8987 12.224C23.32 12.224 23.7227 12.0827 24.1067 11.8L24.5467 12.504C24.0454 12.8987 23.472 13.096 22.8267 13.096C22.2134 13.096 21.7254 12.9067 21.3627 12.528C21 12.144 20.8187 11.6533 20.8187 11.056C20.8187 10.4533 21.0054 9.944 21.3787 9.528C21.752 9.10667 22.2614 8.896 22.9067 8.896C23.376 8.896 23.7734 9.02133 24.0987 9.272C24.424 9.51733 24.5867 9.856 24.5867 10.288C24.5867 10.6187 24.4827 10.8933 24.2747 11.112C24.072 11.3253 23.7574 11.432 23.3307 11.432H21.8427C21.9547 11.96 22.3067 12.224 22.8987 12.224ZM22.8987 9.72C22.6374 9.72 22.4054 9.80533 22.2027 9.976C22 10.1467 21.872 10.3867 21.8187 10.696H23.0987C23.2587 10.696 23.3814 10.656 23.4667 10.576C23.5574 10.496 23.6027 10.3893 23.6027 10.256C23.6027 10.1067 23.536 9.98133 23.4027 9.88C23.2747 9.77333 23.1067 9.72 22.8987 9.72ZM27.1487 12.224C27.57 12.224 27.9727 12.0827 28.3567 11.8L28.7967 12.504C28.2954 12.8987 27.722 13.096 27.0767 13.096C26.4634 13.096 25.9754 12.9067 25.6127 12.528C25.25 12.144 25.0687 11.6533 25.0687 11.056C25.0687 10.4533 25.2554 9.944 25.6287 9.528C26.002 9.10667 26.5114 8.896 27.1567 8.896C27.626 8.896 28.0234 9.02133 28.3487 9.272C28.674 9.51733 28.8367 9.856 28.8367 10.288C28.8367 10.6187 28.7327 10.8933 28.5247 11.112C28.322 11.3253 28.0074 11.432 27.5807 11.432H26.0927C26.2047 11.96 26.5567 12.224 27.1487 12.224ZM27.1487 9.72C26.8874 9.72 26.6554 9.80533 26.4527 9.976C26.25 10.1467 26.122 10.3867 26.0687 10.696H27.3487C27.5087 10.696 27.6314 10.656 27.7167 10.576C27.8074 10.496 27.8527 10.3893 27.8527 10.256C27.8527 10.1067 27.786 9.98133 27.6527 9.88C27.5247 9.77333 27.3567 9.72 27.1487 9.72ZM32.1747 7.288H33.2547V13H32.2387V12.648C31.892 12.952 31.4947 13.104 31.0467 13.104C30.5614 13.104 30.1534 12.9173 29.8227 12.544C29.492 12.1707 29.3267 11.6773 29.3267 11.064C29.3267 10.408 29.508 9.88267 29.8707 9.488C30.2387 9.09333 30.7 8.896 31.2547 8.896C31.596 8.896 31.9027 8.97867 32.1747 9.144V7.288ZM31.3027 12.208C31.628 12.208 31.9187 12.0773 32.1747 11.816V10.104C31.9347 9.896 31.6707 9.792 31.3827 9.792C31.1 9.792 30.8707 9.90133 30.6947 10.12C30.524 10.3333 30.4387 10.6427 30.4387 11.048C30.4387 11.3947 30.5134 11.6747 30.6627 11.888C30.812 12.1013 31.0254 12.208 31.3027 12.208Z" fill="#FCFCFC"/>
</svg>
