<svg width="50" height="20" viewBox="0 0 50 20" fill="none" xmlns="http://www.w3.org/2000/svg">
<rect width="50" height="20" rx="10" fill="#D8DCE5"/>
<path d="M13.4263 14.2858L11.2529 12.3104C10.0537 11.1178 11.815 8.84426 13.4263 10.7078C15.0752 8.88152 16.799 11.155 15.5998 12.3104L13.4263 14.2858Z" stroke="#6F7288" stroke-linecap="round" stroke-linejoin="round"/>
<path d="M6 9.28577H7.07143L8.49999 11.7858L11.7143 5.71436L13.1428 8.57149" stroke="#6F7288" stroke-linecap="round" stroke-linejoin="round"/>
<path d="M23.1106 7.288C23.7293 7.288 24.204 7.46133 24.5346 7.808C24.8653 8.15467 25.0306 8.592 25.0306 9.12C25.0306 9.712 24.86 10.168 24.5186 10.488C24.1773 10.808 23.6866 10.968 23.0466 10.968H21.9986V13H21.0786V7.68C21.0786 7.568 21.116 7.47467 21.1906 7.4C21.2653 7.32533 21.3586 7.288 21.4706 7.288H23.1106ZM23.0306 10.176C23.7346 10.176 24.0866 9.82133 24.0866 9.112C24.0866 8.78667 23.9933 8.53333 23.8066 8.352C23.6253 8.17067 23.364 8.08 23.0226 8.08H21.9986V10.176H23.0306ZM28.4744 9H29.3384V13.008H28.5064V12.448C28.0157 12.88 27.517 13.096 27.0104 13.096C26.6104 13.096 26.2984 12.9893 26.0744 12.776C25.8557 12.5573 25.7464 12.24 25.7464 11.824V9H26.6184V11.632C26.6184 12.1067 26.8184 12.344 27.2184 12.344C27.5864 12.344 28.005 12.1493 28.4744 11.76V9ZM30.4188 13V7.288H31.2908V13H30.4188ZM33.6361 13.088C32.9535 13.088 32.4148 12.88 32.0201 12.464L32.3961 11.912C32.7801 12.2373 33.1881 12.4 33.6201 12.4C33.8335 12.4 34.0175 12.3573 34.1721 12.272C34.3268 12.1867 34.4041 12.0613 34.4041 11.896C34.4041 11.8427 34.3935 11.7947 34.3721 11.752C34.3561 11.704 34.3268 11.6613 34.2841 11.624C34.2468 11.5867 34.2095 11.5547 34.1721 11.528C34.1348 11.5013 34.0788 11.4747 34.0041 11.448C33.9348 11.4213 33.8788 11.4 33.8361 11.384C33.7935 11.368 33.7268 11.3467 33.6361 11.32C33.5508 11.2933 33.4895 11.2747 33.4521 11.264C33.0681 11.1413 32.7695 10.9947 32.5561 10.824C32.3481 10.6533 32.2441 10.4107 32.2441 10.096C32.2441 9.71733 32.3908 9.424 32.6841 9.216C32.9775 9.00267 33.3481 8.896 33.7961 8.896C34.3455 8.896 34.8201 9.04533 35.2201 9.344L34.8601 9.904C34.5135 9.67467 34.1668 9.56 33.8201 9.56C33.6068 9.56 33.4335 9.60533 33.3001 9.696C33.1668 9.78133 33.1001 9.89333 33.1001 10.032C33.1001 10.112 33.1188 10.184 33.1561 10.248C33.1988 10.3067 33.2681 10.36 33.3641 10.408C33.4601 10.456 33.5375 10.4907 33.5961 10.512C33.6601 10.5333 33.7641 10.5653 33.9081 10.608C34.1321 10.6773 34.3055 10.7387 34.4281 10.792C34.5561 10.8453 34.6948 10.92 34.8441 11.016C34.9988 11.1067 35.1108 11.2213 35.1801 11.36C35.2495 11.4933 35.2841 11.6533 35.2841 11.84C35.2841 12.2347 35.1241 12.5413 34.8041 12.76C34.4841 12.9787 34.0948 13.088 33.6361 13.088ZM37.8743 12.36C38.3116 12.36 38.7223 12.2053 39.1063 11.896L39.5063 12.48C39.0316 12.8853 38.4716 13.088 37.8263 13.088C37.2503 13.088 36.781 12.9067 36.4183 12.544C36.061 12.176 35.8823 11.68 35.8823 11.056C35.8823 10.448 36.0636 9.936 36.4263 9.52C36.7943 9.104 37.301 8.896 37.9463 8.896C38.389 8.896 38.7703 9.01867 39.0903 9.264C39.4103 9.504 39.5703 9.84267 39.5703 10.28C39.5703 10.6 39.4716 10.8587 39.2743 11.056C39.077 11.2533 38.789 11.352 38.4103 11.352H36.7223C36.829 12.024 37.213 12.36 37.8743 12.36ZM37.9223 9.568C37.6023 9.568 37.3303 9.672 37.1063 9.88C36.8876 10.088 36.7543 10.3733 36.7063 10.736H38.2503C38.4103 10.736 38.5356 10.6933 38.6263 10.608C38.717 10.5227 38.7623 10.4 38.7623 10.24C38.7623 10.0533 38.685 9.896 38.5303 9.768C38.381 9.63467 38.1783 9.568 37.9223 9.568ZM41.6752 13.088C40.9925 13.088 40.4539 12.88 40.0592 12.464L40.4352 11.912C40.8192 12.2373 41.2272 12.4 41.6592 12.4C41.8725 12.4 42.0565 12.3573 42.2112 12.272C42.3659 12.1867 42.4432 12.0613 42.4432 11.896C42.4432 11.8427 42.4325 11.7947 42.4112 11.752C42.3952 11.704 42.3659 11.6613 42.3232 11.624C42.2859 11.5867 42.2485 11.5547 42.2112 11.528C42.1739 11.5013 42.1179 11.4747 42.0432 11.448C41.9739 11.4213 41.9179 11.4 41.8752 11.384C41.8325 11.368 41.7659 11.3467 41.6752 11.32C41.5899 11.2933 41.5285 11.2747 41.4912 11.264C41.1072 11.1413 40.8085 10.9947 40.5952 10.824C40.3872 10.6533 40.2832 10.4107 40.2832 10.096C40.2832 9.71733 40.4299 9.424 40.7232 9.216C41.0165 9.00267 41.3872 8.896 41.8352 8.896C42.3845 8.896 42.8592 9.04533 43.2592 9.344L42.8992 9.904C42.5525 9.67467 42.2059 9.56 41.8592 9.56C41.6459 9.56 41.4725 9.60533 41.3392 9.696C41.2059 9.78133 41.1392 9.89333 41.1392 10.032C41.1392 10.112 41.1579 10.184 41.1952 10.248C41.2379 10.3067 41.3072 10.36 41.4032 10.408C41.4992 10.456 41.5765 10.4907 41.6352 10.512C41.6992 10.5333 41.8032 10.5653 41.9472 10.608C42.1712 10.6773 42.3445 10.7387 42.4672 10.792C42.5952 10.8453 42.7339 10.92 42.8832 11.016C43.0379 11.1067 43.1499 11.2213 43.2192 11.36C43.2885 11.4933 43.3232 11.6533 43.3232 11.84C43.3232 12.2347 43.1632 12.5413 42.8432 12.76C42.5232 12.9787 42.1339 13.088 41.6752 13.088Z" fill="#6F7288"/>
</svg>
