<svg width="375" height="250" viewBox="0 0 375 250" fill="none" xmlns="http://www.w3.org/2000/svg">
<g clip-path="url(#clip0_1703_29375)">
<path d="M187.539 250.36C256.214 250.36 311.886 247.11 311.886 243.101C311.886 239.093 256.214 235.843 187.539 235.843C118.864 235.843 63.1914 239.093 63.1914 243.101C63.1914 247.11 118.864 250.36 187.539 250.36Z" fill="#EFF1F5"/>
<g opacity="0.3">
<g opacity="0.5">
<path d="M378.926 199.575V139.269H349.866V122.783H335.952V74.3217L317.98 56.3576H281.507V108.286H231.456V118.551H196.071V105.07H158.054V94.9116H128.371V34.75H75.8248V73.0854H63.7262V86.9777H35.6061V109.745H20.5773L9.01147 121.306V133.063H-2.49902V199.575H378.926Z" fill="#D8DCE5"/>
<path d="M343.528 139.27H349.363L349.865 138.933V139.27H378.926V199.575H343.528V139.27Z" fill="#D8DCE5"/>
<path d="M282.369 122.431H288.204L288.706 122.001V122.431H317.766V199.576H282.369V122.431Z" fill="#D8DCE5"/>
<path d="M195.569 109.455L195.569 118.551H196.998L198.524 128.272L194.216 199.574H146.271V105.069H157.553H194.88L195.569 109.455Z" fill="#D8DCE5"/>
<path d="M83.9558 86.9774V199.574H-3V133.063L8.51049 133.547V109.767L20.0754 109.745H35.1051V86.9774H60.6262H63.2244H83.9558Z" fill="#D8DCE5"/>
<path d="M20.023 121.113H25.2764V115.862H20.023V121.113Z" fill="white"/>
<path d="M29.3062 121.112H34.5596V115.861H29.3062V121.112Z" fill="white"/>
<path d="M20.022 130.898H25.2754V125.647H20.022V130.898Z" fill="white"/>
<path d="M29.3062 130.898H34.5596V125.647H29.3062V130.898Z" fill="white"/>
<path d="M48.7163 96.4619H53.9697V91.211H48.7163V96.4619Z" fill="white"/>
<path d="M58.0005 96.4614H63.2539V91.2105H58.0005V96.4614Z" fill="white"/>
<path d="M349.626 153.025H354.88V147.774H349.626V153.025Z" fill="white"/>
<path d="M358.912 153.025H364.165V147.774H358.912V153.025Z" fill="white"/>
<path d="M157.58 125.753V120.502H152.327V125.753H157.58Z" fill="white"/>
<path d="M157.581 116.473V111.222H152.328V116.473H157.581Z" fill="white"/>
</g>
<path d="M110.808 133.785H114.609V129.986H110.808V133.785Z" fill="white"/>
<path d="M117.526 133.785H121.327V129.986H117.526V133.785Z" fill="white"/>
<path d="M291.976 106.259H295.777V102.46H291.976V106.259Z" fill="white"/>
<path d="M298.694 106.259H302.495V102.46H298.694V106.259Z" fill="white"/>
<path d="M298.694 113.339H302.495V109.54H298.694V113.339Z" fill="white"/>
<path d="M317.279 56.8638C317.339 56.4852 317.379 56.1 317.379 55.7049C317.379 51.6171 314.064 48.303 309.974 48.303C309.564 48.303 309.166 48.345 308.774 48.4086C307.297 45.9496 304.604 44.3037 301.526 44.3037C297.652 44.3037 294.389 46.9117 293.393 50.466C292.878 50.3058 292.33 50.2192 291.761 50.2192C288.73 50.2192 286.273 52.6749 286.273 55.7042C286.273 56.1019 286.318 56.4898 286.399 56.8632H317.279V56.8638Z" fill="#EFF1F5"/>
<path d="M121.201 56.5502C121.243 56.2778 121.272 56.0009 121.272 55.7174C121.272 52.7793 118.89 50.3984 115.951 50.3984C115.657 50.3984 115.37 50.4286 115.089 50.4745C114.028 48.7072 112.093 47.5247 109.881 47.5247C107.097 47.5247 104.752 49.3989 104.037 51.9531C103.666 51.8376 103.272 51.7759 102.864 51.7759C100.686 51.7759 98.9199 53.5406 98.9199 55.718C98.9199 56.0042 98.9521 56.2824 99.0099 56.5508L121.201 56.5502Z" fill="#EFF1F5"/>
<path d="M240.795 52.3589C240.897 51.7079 240.966 51.0457 240.966 50.3665C240.966 43.3399 235.267 37.6436 228.237 37.6436C227.533 37.6436 226.847 37.7158 226.174 37.8254C223.636 33.5991 219.008 30.7693 213.717 30.7693C207.058 30.7693 201.45 35.2522 199.738 41.362C198.851 41.0863 197.91 40.938 196.933 40.938C191.723 40.938 187.5 45.1591 187.5 50.3665C187.5 51.0503 187.577 51.7164 187.715 52.3589H240.795Z" fill="#EFF1F5"/>
</g>
<path d="M137.033 125.484C135.981 124.849 134.762 124.544 133.534 124.608C132.781 123.693 133.388 122.317 134.118 121.387C134.849 120.457 135.741 119.397 135.464 118.244C135.033 116.514 132.603 116.445 130.85 116.783C130.204 115.738 130.22 114.439 129.904 113.232C129.589 112.026 128.559 110.757 127.413 110.926C126.267 111.096 125.559 112.364 124.429 112.633C123.114 112.94 121.976 111.78 120.945 110.911C120.819 110.803 120.685 110.703 120.546 110.611C120.761 107.006 124.191 107.583 127.113 107.09C129.397 106.714 123.345 100.942 127.959 99.0815C128.853 98.836 129.637 98.2937 130.181 97.5443C130.66 96.3776 130.236 95.0353 129.174 94.3545C128.123 93.7212 126.908 93.4161 125.682 93.4783C124.929 92.5635 125.536 91.1879 126.267 90.2578C126.997 89.3276 127.882 88.2667 127.612 87.1142C127.173 85.3847 124.752 85.3154 122.998 85.6539C122.353 84.6084 122.368 83.3097 122.052 82.1033C121.737 80.8969 120.715 79.6283 119.561 79.7975C118.407 79.9667 117.707 81.2347 116.577 81.5039C115.263 81.811 114.124 80.6507 113.094 79.7821C112.063 78.9135 110.263 78.368 109.556 79.5129C109.133 80.1892 109.387 81.1424 108.941 81.8186C108.18 82.9719 106.357 82.2642 105.235 81.434C104.112 80.6039 102.297 79.8507 101.528 81.0039C101.328 81.3815 101.181 81.7853 101.09 82.2033C100.98 82.5007 100.828 82.7808 100.636 83.0334C100.413 82.234 100.344 81.3654 100.137 80.5584C99.8213 79.359 98.799 78.0834 97.6452 78.2526C96.4915 78.4218 95.7918 79.6975 94.6617 79.959C93.3464 80.2744 92.2086 79.1058 91.178 78.2372C90.1474 77.3686 88.3478 76.8231 87.6404 77.9757C87.2178 78.652 87.4711 79.6052 87.0254 80.2815C86.933 80.4334 86.8067 80.5629 86.656 80.6577C86.2641 80.5808 85.8793 80.5808 85.4945 80.5808C84.741 79.6738 85.3483 78.3058 86.0788 77.368C86.8092 76.4302 87.7013 75.3693 87.4243 74.2244C86.9933 72.4872 84.5633 72.4257 82.8105 72.7642C82.1647 71.711 82.1801 70.4122 81.8646 69.2135C81.549 68.0142 80.5267 66.7308 79.373 66.9077C78.2199 67.0847 77.5195 68.3526 76.3895 68.6219C75.0748 68.9295 73.9364 67.7763 72.9058 66.9001C71.8752 66.0238 70.0756 65.486 69.3682 66.6308C68.9455 67.2994 69.1989 68.2603 68.7532 68.9366C67.9919 70.0821 66.1846 69.3751 65.0546 68.5449C63.9239 67.7148 62.1096 66.9616 61.34 68.1148C61.1386 68.4949 60.9911 68.9007 60.9013 69.3212C60.3709 70.8584 58.7022 71.627 57.4099 72.611C56.1182 73.5949 55.0953 75.5545 56.1869 76.7539C56.7249 77.3533 57.6786 77.5763 57.948 78.3449C58.2789 79.252 57.3175 80.136 56.5486 80.7892C55.541 81.9071 55.2441 83.4949 55.7796 84.9013C55.3967 85.2501 54.9427 85.5122 54.4495 85.6699C53.1348 85.9776 51.9964 84.8167 50.9658 83.9481C49.9351 83.0795 48.1356 82.534 47.4282 83.6789C47.0055 84.3475 47.2589 85.3084 46.8131 85.9847C46.0519 87.1379 44.2446 86.4302 43.1146 85.6001C41.9839 84.7699 40.1696 84.0167 39.4 85.1699C39.1999 85.5475 39.0524 85.9513 38.9613 86.3686C38.4309 87.9058 36.7622 88.6744 35.4705 89.6584C34.1789 90.6424 33.1559 92.602 34.2475 93.809C34.7625 94.4084 35.6546 94.6545 35.9624 95.3462C35.0549 94.9847 34.0089 95.077 33.5863 95.7533C33.163 96.4295 33.417 97.3827 32.9712 98.059C32.21 99.2122 30.4027 98.5045 29.272 97.6744C28.142 96.8443 26.327 96.0911 25.5581 97.2443C25.3567 97.6244 25.2085 98.0302 25.12 98.4507C24.5897 99.9879 22.9209 100.741 21.6286 101.733C20.3363 102.724 19.314 104.684 20.4062 105.883C20.9443 106.475 21.898 106.706 22.1673 107.474C22.506 108.381 21.5446 109.265 20.7756 109.919C19.4994 110.995 19.2685 114.231 20.9527 115.122C21.66 115.491 22.7138 115.683 22.8677 116.383C23.0216 117.082 22.3142 117.62 21.8447 118.158C21.7364 118.297 21.6389 118.446 21.5536 118.6C20.6647 120.214 21.2528 122.242 22.8677 123.131C23.2749 123.315 23.7675 123.477 23.9214 123.899C23.9791 124.215 23.9445 124.541 23.8213 124.837C23.6597 125.425 23.6052 126.037 23.6597 126.644C23.6597 126.853 23.7392 127.053 23.8829 127.205C24.0368 127.315 24.2241 127.369 24.4133 127.358C26.8433 127.466 28.0118 126.605 29.4965 128.719C29.626 128.931 29.7992 129.115 30.0038 129.256C30.2116 129.36 30.4405 129.415 30.6727 129.418C32.3415 129.556 33.4183 128.519 34.9562 128.319C37.086 128.049 37.5247 129.141 39.3935 130.017C42.3232 131.401 43.7463 130.547 44.2998 128.549C44.4453 127.983 44.5332 127.404 44.5614 126.82C44.5486 125.939 44.9225 125.096 45.5843 124.514H45.6305C47.1915 124.645 48.2452 123.753 49.6138 123.476L50.4828 123.384C52.1054 123.369 52.6435 124.345 54.3276 125.114C55.1024 125.522 55.9592 125.75 56.8346 125.782C57.0809 126.689 56.1888 127.504 55.4198 128.134C54.1513 129.218 53.9204 132.454 55.6045 133.338C56.3042 133.706 57.3656 133.914 57.5196 134.606C57.6735 135.297 56.9661 135.843 56.4966 136.374C56.3889 136.512 56.2927 136.658 56.208 136.811C55.3153 138.428 55.9021 140.462 57.5196 141.354C57.9197 141.546 58.4193 141.7 58.5656 142.122C58.6303 142.44 58.5983 142.769 58.4732 143.068C58.3045 143.651 58.2494 144.262 58.3116 144.867C58.309 145.077 58.386 145.28 58.5271 145.435C58.6855 145.542 58.8747 145.594 59.0652 145.581C61.4952 145.689 62.6637 144.828 64.1484 146.942C64.2741 147.158 64.4472 147.342 64.6557 147.48C64.8641 147.582 65.0924 147.64 65.3246 147.649C66.9933 147.787 68.0701 146.742 69.608 146.549C71.7302 146.28 72.1766 147.372 74.0371 148.248C76.9744 149.624 78.3975 148.778 78.951 146.78C79.0972 146.212 79.1851 145.63 79.2127 145.043C79.4281 141.446 82.858 142.015 85.7876 141.53C85.9941 141.514 86.1763 141.387 86.2641 141.199H86.4488C88.1176 141.338 89.1944 140.3 90.7323 140.1C92.8622 139.831 93.3008 140.922 95.169 141.799C98.0986 143.182 99.5218 142.329 100.075 140.331C100.221 139.762 100.309 139.18 100.337 138.594C100.529 135.796 102.644 135.519 104.951 135.304C105.024 136.411 105.664 137.402 106.642 137.925C107.05 138.11 107.542 138.271 107.696 138.694C107.754 139.009 107.719 139.335 107.596 139.631C107.435 140.217 107.381 140.826 107.435 141.43C107.432 141.64 107.509 141.844 107.65 141.999C107.809 142.105 107.997 142.158 108.188 142.153C110.618 142.26 111.787 141.399 113.271 143.513C113.401 143.726 113.574 143.909 113.779 144.051C113.986 144.155 114.215 144.21 114.448 144.212C116.116 144.351 117.193 143.313 118.731 143.113C120.861 142.844 121.3 143.935 123.168 144.812C126.097 146.195 127.52 145.342 128.074 143.344C128.219 142.778 128.307 142.198 128.336 141.614C128.551 138.009 131.989 138.586 134.911 138.094C137.194 137.717 131.135 131.945 135.749 130.085C136.643 129.839 137.426 129.297 137.971 128.547C138.397 127.435 138.011 126.172 137.033 125.484Z" fill="#D8DCE5"/>
<path d="M52.0968 146.967C51.222 146.435 50.2061 146.18 49.1832 146.235C48.5566 145.47 49.069 144.332 49.6712 143.551C50.2734 142.77 51.0219 141.924 50.7859 140.932C50.444 139.484 48.4181 139.435 46.961 139.719C46.4158 138.841 46.4319 137.751 46.1471 136.758C45.8624 135.766 45.0889 134.725 44.0718 134.847C43.0546 134.969 42.5255 136.051 41.5815 136.271C40.4912 136.531 39.5388 135.563 38.6845 134.839C37.8303 134.115 36.3244 133.66 35.7306 134.612C35.3804 135.181 35.592 135.986 35.2258 136.548C34.5832 137.524 33.0774 136.914 32.1333 136.222C31.1893 135.531 29.6918 134.904 29.0408 135.864C28.8766 136.181 28.7535 136.517 28.6746 136.865C28.2353 138.15 26.852 138.784 25.7694 139.606C24.6868 140.427 23.8325 142.046 24.7522 143.063C25.1999 143.559 25.9894 143.762 26.217 144.389C26.4934 145.202 25.6879 145.885 25.0536 146.422C23.9954 147.324 23.8005 150.025 25.1999 150.757C25.7938 151.066 26.6563 151.164 26.8276 151.814C26.9982 152.465 26.3716 152.847 26.0137 153.294C25.0716 154.508 25.2929 156.256 26.5076 157.198C26.6211 157.286 26.7423 157.365 26.868 157.435C27.2015 157.598 27.6164 157.728 27.7389 158.085C27.7992 158.358 27.771 158.643 27.6575 158.899C27.5215 159.385 27.4773 159.893 27.5273 160.396C27.5234 160.57 27.5876 160.739 27.7062 160.867C27.8364 160.96 27.9942 161.006 28.1539 160.998C30.1721 161.087 31.1482 160.371 32.3854 162.128C32.4938 162.305 32.6374 162.458 32.8087 162.576C32.9831 162.662 33.1749 162.71 33.3698 162.714C34.7615 162.828 35.6645 161.966 36.942 161.803C38.6999 161.576 39.0738 162.487 40.6284 163.219C43.07 164.365 44.2661 163.658 44.697 161.99C44.8183 161.519 44.8914 161.037 44.917 160.551C45.096 157.549 47.9602 158.021 50.3934 157.614C52.2975 157.297 47.2605 152.498 51.0931 150.944C51.8434 150.742 52.4995 150.285 52.9485 149.651C53.364 148.668 53.0017 147.531 52.0968 146.967Z" fill="#D8DCE5"/>
<path d="M89.3067 130.383L92.4421 120.442L98.5476 112.594L97.5048 111.724L91.745 117.999L90.7214 108.058H89.054C89.054 108.058 90.4238 119.868 88.453 124.192C88.453 124.192 81.2951 142.395 76.9373 146.335C76.6903 146.563 76.4755 146.824 76.2972 147.109C74.9902 143.758 73.2913 140.574 71.2352 137.623C72.9565 133.222 76.6493 123.551 77.9037 118.376C78.8869 114.356 79.6244 110.281 80.1119 106.172L78.6842 106.015C78.6842 106.015 74.6342 125.131 67.94 133.83C65.957 132.009 63.7085 130.499 61.2714 129.353C60.7276 126.666 60.4973 121.99 62.2764 114.692L60.8616 114.33C60.8616 114.33 58.1616 120.506 58.3982 127.919C57.3913 127.413 56.4204 126.838 55.493 126.199C49.0425 121.663 44.505 113.47 44.505 113.47L43.1845 114.755C43.1845 114.755 48.6904 126.839 56.3633 130.875C64.0362 134.911 69.0084 144.749 69.4054 147.327C69.5138 148.063 70.4008 153.903 69.172 164.137C61.0072 160.655 44.8283 151.068 43.7527 150.185L41.8691 152.716L68.0452 171.437C68.455 196.383 66.5688 222.339 66.6387 227.955H81.8819C81.5067 220.208 78.295 191.078 79.7206 160.631C79.8419 159.883 79.9701 159.026 80.092 158.028C81.2823 148.689 88.3729 135.93 91.7456 132.301C95.3596 128.413 99.3769 125.331 99.3769 125.331L98.4495 123.343L89.3067 130.383Z" fill="#EFF1F5"/>
<path d="M283.078 15.926C283.078 13.9331 281.461 12.317 279.467 12.317C279.117 12.3157 278.769 12.3677 278.435 12.4709C278.486 12.1036 278.512 11.7331 278.512 11.3619C278.512 7.14203 275.089 3.72088 270.867 3.72088C270.396 3.72088 269.926 3.76383 269.463 3.84908C267.544 0.697802 263.432 -0.302198 260.28 1.61575C258.316 2.80998 257.105 4.92985 257.072 7.22729H256.957C253.554 7.33691 250.886 10.1824 250.995 13.5831C251.1 16.8292 253.709 19.4369 256.957 19.5414H279.57C281.528 19.4895 283.086 17.8837 283.078 15.926Z" fill="#EFF1F5"/>
<path d="M154.418 20.5904C154.418 18.741 152.918 17.2423 151.068 17.2423C150.744 17.241 150.421 17.2891 150.11 17.3853C150.158 17.0442 150.182 16.7006 150.181 16.3564C150.181 12.441 147.006 9.26731 143.089 9.26731C142.652 9.26731 142.215 9.30705 141.786 9.38654C140.005 6.46282 136.191 5.53526 133.266 7.31475C131.444 8.42308 130.321 10.3891 130.29 12.5205H130.183C127.027 12.6224 124.551 15.2622 124.652 18.4173C124.75 21.4288 127.17 23.8481 130.183 23.9455H151.163C152.98 23.8962 154.425 22.4071 154.418 20.5904Z" fill="#EFF1F5"/>
<path d="M75.6557 41.87C75.6557 40.7584 74.754 39.8572 73.6419 39.8572C73.4463 39.8565 73.2526 39.8854 73.066 39.9431C73.0949 39.7379 73.109 39.5315 73.109 39.3245C73.109 36.9706 71.1997 35.0623 68.8448 35.0623C68.5818 35.0623 68.3201 35.086 68.0617 35.1341C66.9913 33.3764 64.6979 32.8187 62.9394 33.8886C61.844 34.5546 61.168 35.7373 61.15 37.0187H61.0859C59.1882 37.0802 57.6997 38.6674 57.7606 40.5636C57.819 42.3745 59.2741 43.8283 61.0859 43.8873H73.6996C74.7912 43.8572 75.6602 42.9616 75.6557 41.87Z" fill="#EFF1F5"/>
<path d="M369.411 43.708C369.411 41.7702 367.839 40.199 365.9 40.199C365.56 40.1978 365.222 40.2478 364.896 40.3484C364.947 39.9913 364.972 39.6311 364.972 39.2702C364.972 35.167 361.644 31.8407 357.538 31.8407C357.081 31.8407 356.623 31.8824 356.173 31.9651C354.307 28.901 350.31 27.9292 347.244 29.7939C345.335 30.9554 344.157 33.0163 344.126 35.2497H344.013C340.705 35.3561 338.111 38.1234 338.217 41.4292C338.319 44.5856 340.855 47.1208 344.013 47.2228H366C367.903 47.1728 369.418 45.6119 369.411 43.708Z" fill="#EFF1F5"/>
<path d="M179.575 95.7489C179.575 93.5578 177.798 91.7816 175.606 91.7816C175.221 91.7796 174.838 91.8367 174.47 91.9508C174.528 91.5469 174.556 91.1392 174.555 90.7316C174.555 86.0925 170.793 82.3322 166.152 82.3322C165.634 82.3322 165.117 82.3796 164.608 82.4732C162.499 79.0091 157.979 77.9104 154.513 80.0181C152.355 81.3316 151.023 83.661 150.987 86.1867H150.86C147.121 86.3072 144.187 89.4354 144.307 93.1732C144.423 96.7418 147.29 99.6078 150.86 99.7232H175.719C177.871 99.6655 179.583 97.9008 179.575 95.7489Z" fill="#D8DCE5"/>
<path d="M326.617 227.746H330.754V80.1642C330.748 72.7501 324.737 66.7418 317.319 66.7354H313.666V70.8706H317.319C322.452 70.877 326.61 75.0341 326.617 80.1636V227.746Z" fill="#D8DCE5"/>
<path d="M287.181 71.7988H316.965L316.286 67.3084C316.058 65.802 314.873 64.62 313.366 64.3956C311.403 64.1059 308.832 63.7578 307.626 63.7341C304.109 63.6572 295.415 64.5668 291.17 65.0456C289.734 65.2129 288.554 66.2578 288.215 67.6629L287.181 71.7988Z" fill="#EBEBEB"/>
<path d="M290.331 74.9418H313.82C315.557 74.9418 316.965 73.5347 316.965 71.7988H287.18C287.184 73.5354 288.593 74.9418 290.331 74.9418Z" fill="#F5F5F5"/>
<path d="M306.881 81.4739L312.467 94.645" stroke="#D8DCE5" stroke-width="0.5" stroke-miterlimit="10" stroke-linecap="round" stroke-linejoin="round"/>
<path d="M301.407 81.4739C301.407 89.0784 300.941 95.4027 300.941 103.008" stroke="#D8DCE5" stroke-width="0.5" stroke-miterlimit="10" stroke-linecap="round" stroke-linejoin="round"/>
<path d="M296.749 80.8917L288.597 91.6001" stroke="#D8DCE5" stroke-width="0.5" stroke-miterlimit="10" stroke-linecap="round" stroke-linejoin="round"/>
<path d="M256.171 38.9487L169.621 39.0212C164.309 39.0257 160.005 43.334 160.01 48.6449L160.161 229.116C160.166 234.426 164.477 238.728 169.789 238.723L256.339 238.651C261.652 238.646 265.955 234.338 265.951 229.027L265.8 48.5558C265.795 43.2455 261.484 38.9442 256.171 38.9487Z" fill="#263238"/>
<path d="M255.904 230.701L170.212 230.773C168.441 230.774 167.004 229.341 167.003 227.571L166.853 49.1135C166.851 47.3436 168.285 45.9071 170.057 45.9058L255.749 45.834C257.52 45.8327 258.957 47.266 258.958 49.0366L259.108 227.494C259.11 229.263 257.675 230.699 255.904 230.701Z" fill="#4576F2"/>
<path opacity="0.1" d="M220.765 225.649L205.342 225.662C203.571 225.663 202.134 224.23 202.132 222.459L202.132 221.536C202.131 219.766 203.565 218.33 205.336 218.328L220.759 218.315C222.531 218.314 223.967 219.747 223.969 221.518L223.969 222.441C223.971 224.211 222.536 225.647 220.765 225.649Z" fill="black"/>
<path opacity="0.1" d="M220.73 183.29L205.306 183.303C203.535 183.304 202.098 181.871 202.097 180.101L202.087 167.762C202.086 165.992 203.52 164.556 205.291 164.554L220.714 164.542C222.486 164.54 223.922 165.974 223.924 167.744L223.934 180.083C223.935 181.853 222.501 183.288 220.73 183.29Z" fill="black"/>
<path opacity="0.1" d="M193.544 183.313L178.121 183.326C176.35 183.327 174.913 181.894 174.912 180.123L174.901 167.785C174.9 166.015 176.334 164.578 178.105 164.577L193.529 164.564C195.3 164.563 196.737 165.996 196.738 167.767L196.748 180.105C196.75 181.875 195.315 183.312 193.544 183.313Z" fill="black"/>
<path opacity="0.1" d="M247.916 183.267L232.493 183.28C230.722 183.281 229.285 181.848 229.284 180.078L229.273 167.739C229.272 165.969 230.706 164.533 232.478 164.531L247.901 164.519C249.672 164.517 251.109 165.951 251.11 167.721L251.12 180.06C251.122 181.829 249.687 183.266 247.916 183.267Z" fill="black"/>
<path opacity="0.1" d="M220.75 207.417L205.327 207.43C203.556 207.431 202.119 205.997 202.118 204.227L202.107 191.888C202.106 190.119 203.54 188.682 205.312 188.681L220.735 188.668C222.506 188.667 223.943 190.1 223.944 191.871L223.954 204.209C223.956 205.979 222.521 207.415 220.75 207.417Z" fill="black"/>
<path opacity="0.1" d="M193.564 207.439L178.14 207.452C176.37 207.453 174.932 206.02 174.931 204.249L174.921 191.911C174.92 190.141 176.354 188.705 178.125 188.703L193.548 188.69C195.32 188.689 196.756 190.122 196.758 191.893L196.768 204.231C196.769 206.001 195.335 207.438 193.564 207.439Z" fill="black"/>
<path opacity="0.1" d="M247.936 207.394L232.512 207.406C230.742 207.408 229.305 205.974 229.303 204.204L229.293 191.865C229.292 190.096 230.726 188.659 232.497 188.658L247.921 188.645C249.691 188.644 251.128 190.077 251.13 191.847L251.14 204.186C251.141 205.956 249.707 207.392 247.936 207.394Z" fill="black"/>
<path opacity="0.1" d="M259.071 183.946L259.019 121.89C235.624 148.728 192.097 199.112 167.059 228.124C167.323 229.629 168.631 230.774 170.211 230.772L218.472 230.732L259.071 183.946Z" fill="white"/>
<path opacity="0.1" d="M166.927 138.878L247.661 45.8403L209.868 45.8717C199.873 57.3019 182.797 77.0211 166.891 95.423L166.927 138.878Z" fill="white"/>
<path opacity="0.1" d="M166.96 177.738L258.977 71.6981L258.958 49.0205L166.94 155.062L166.96 177.738Z" fill="white"/>
<path opacity="0.2" d="M258.961 53.0763L166.856 53.1539L166.853 49.1135C166.851 47.3436 168.285 45.9071 170.057 45.9058L255.749 45.834C257.52 45.8327 258.957 47.266 258.958 49.0366L258.961 53.0763Z" fill="black"/>
<path opacity="0.6" d="M245.778 51.2751L245.509 51.0065L245.449 50.9469C245.44 50.9366 245.432 50.9251 245.422 50.9135C245.422 50.9122 245.42 50.9116 245.42 50.9103C245.393 50.8751 245.364 50.8334 245.337 50.7866C245.232 50.6078 245.134 50.3456 245.128 49.9981C245.128 49.9981 245.127 49.2219 245.127 49.1904C245.127 48.5648 244.724 48.0206 244.168 47.8052C244.172 47.7885 244.177 47.7719 244.18 47.7552V47.7533C244.183 47.7366 244.186 47.7199 244.187 47.7033C244.189 47.686 244.19 47.6687 244.19 47.6507C244.19 47.3469 243.943 47.1007 243.639 47.1007C243.335 47.1007 243.088 47.3475 243.088 47.6513C243.088 47.6693 243.09 47.6866 243.091 47.7039C243.092 47.7206 243.095 47.7372 243.098 47.7539V47.7558C243.101 47.7725 243.106 47.7892 243.11 47.8058C242.554 48.0225 242.152 48.5674 242.153 49.193C242.153 49.2238 242.153 49.9725 242.153 49.9725C242.153 50.3334 242.053 50.6058 241.945 50.7892C241.906 50.8552 241.867 50.9103 241.831 50.9533L241.774 51.0097L241.506 51.2789C241.44 51.3443 241.42 51.443 241.456 51.5289C241.491 51.6148 241.575 51.6706 241.668 51.6706L243.165 51.6693C243.261 51.8334 243.438 51.9443 243.642 51.9443C243.846 51.9443 244.023 51.8334 244.118 51.6687L245.615 51.6674C245.708 51.6674 245.791 51.6116 245.826 51.5257C245.864 51.4392 245.844 51.3405 245.778 51.2751Z" fill="white"/>
<g opacity="0.6">
<path opacity="0.6" d="M176.813 51.1844L178.207 51.1832L178.205 49.3255L176.811 49.3267L176.813 51.1844Z" fill="white"/>
<path opacity="0.6" d="M174.54 51.1865L175.935 51.1853L175.933 48.7077L174.538 48.7089L174.54 51.1865Z" fill="white"/>
<path opacity="0.6" d="M172.268 51.1885L173.662 51.1873L173.659 48.0898L172.265 48.091L172.268 51.1885Z" fill="white"/>
<path opacity="0.6" d="M169.995 51.1904L171.39 51.1892L171.387 47.4719L169.992 47.4731L169.995 51.1904Z" fill="white"/>
</g>
<path opacity="0.6" d="M249.753 48.5879H248.927V50.4456H249.753V48.5879Z" fill="white"/>
<path opacity="0.6" d="M249.755 51.1231L256.339 51.1176L256.336 47.9035L249.752 47.909L249.755 51.1231Z" fill="white"/>
<path d="M217.7 45.8654C217.702 48.5141 215.556 50.6635 212.906 50.6654C210.256 50.668 208.105 48.5225 208.104 45.8731C208.101 43.2244 210.248 41.075 212.898 41.0731C215.548 41.0712 217.698 43.2167 217.7 45.8654Z" fill="#263238"/>
<path opacity="0.1" d="M215.381 45.8673C215.382 47.2353 214.273 48.3455 212.905 48.3468C211.536 48.3481 210.425 47.2398 210.424 45.8718C210.423 44.5039 211.531 43.3936 212.9 43.3923C214.269 43.3911 215.379 44.4994 215.381 45.8673Z" fill="#D8DCE5"/>
<path d="M215.943 49.6443C215.943 49.6443 219.832 45.8635 227.093 45.8571L215.939 45.2257L215.943 49.6443Z" fill="#263238"/>
<path d="M209.868 49.6494C209.868 49.6494 205.973 45.8751 198.712 45.8815L209.864 45.2308L209.868 49.6494Z" fill="#263238"/>
<path opacity="0.3" d="M247.245 74.5026H185.883C182.341 74.5026 179.47 77.3724 179.47 80.9128V175.444C179.47 178.984 182.341 181.854 185.883 181.854H247.245C250.787 181.854 253.658 178.984 253.658 175.444V80.9128C253.658 77.3724 250.787 74.5026 247.245 74.5026Z" fill="black"/>
<path d="M245.085 69.9391H183.724C180.182 69.9391 177.311 72.809 177.311 76.3493V170.88C177.311 174.421 180.182 177.29 183.724 177.29H245.085C248.627 177.29 251.499 174.421 251.499 170.88V76.3493C251.499 72.809 248.627 69.9391 245.085 69.9391Z" fill="white"/>
<path d="M196.567 93.3238C206.141 84.1103 221.375 84.3988 230.593 93.9687C239.564 103.281 239.565 118.014 230.598 127.329L217.005 140.918C215.118 142.805 212.058 142.805 210.171 140.918L196.567 127.321C187.181 117.93 187.181 102.714 196.567 93.3238ZM213.586 121.506C219.931 121.506 225.041 116.219 224.746 109.812C224.484 104.125 219.803 99.4456 214.114 99.1841C207.703 98.8892 202.414 103.997 202.414 110.339V110.342C202.426 116.5 207.424 121.486 213.586 121.486V121.506H213.586Z" fill="#FF7A7A"/>
<path d="M240.865 83.2776C238.327 83.2776 236.262 81.2135 236.262 78.677C236.262 76.1404 238.327 74.0757 240.865 74.0757C243.404 74.0757 245.468 76.1398 245.468 78.677C245.468 81.2142 243.404 83.2776 240.865 83.2776ZM240.865 74.9122C238.789 74.9122 237.099 76.6007 237.099 78.6763C237.099 80.752 238.789 82.4404 240.865 82.4404C242.942 82.4404 244.631 80.752 244.631 78.6763C244.631 76.6007 242.942 74.9122 240.865 74.9122Z" fill="#D8DCE5"/>
<path d="M242.268 76.6825L238.868 80.0802L239.46 80.6717L242.859 77.274L242.268 76.6825Z" fill="#D8DCE5"/>
<path d="M239.462 76.6889L238.87 77.2804L242.269 80.6781L242.861 80.0866L239.462 76.6889Z" fill="#D8DCE5"/>
<path d="M230.742 156.218H195.219V158.141H230.742V156.218Z" fill="#D8DCE5"/>
<path d="M230.72 169.392H195.196V171.315H230.72V169.392Z" fill="#F5F5F5"/>
<path d="M237.987 160.923H187.973V164.128H237.987V160.923Z" fill="#D8DCE5"/>
<path d="M161.789 104.865L162.868 102.344L165.311 103.04L163.795 106.43L161.789 104.865Z" fill="#E4897B"/>
<path d="M164.635 103.622C164.635 103.622 166.202 103.053 166.501 102.371C166.801 101.689 167.195 97.0744 166.725 96.6462C166.255 96.2186 163.52 96.9449 163.084 97.7885C162.648 98.6321 162.531 102.525 162.698 102.894L164.635 103.622Z" fill="#E4897B"/>
<path d="M136.423 74.7161C136.423 74.7161 139.645 70.5923 145.363 72.7013C151.081 74.8103 151.644 83.4936 150.925 87.9725C150.206 92.4513 149.543 99.5725 150.469 100.293C150.469 100.293 146.021 101.501 143.255 99.5693C140.489 97.6378 140.629 89.5834 140.629 89.5834L141.718 85.4186L136.423 74.7161Z" fill="#263238"/>
<path d="M145.783 226.254L145.631 234.833L150.148 234.562L150.704 226.791L145.783 226.254Z" fill="#FFB573"/>
<path d="M150.963 234.019L145.26 233.917C145.046 233.913 144.856 234.059 144.806 234.268L143.692 238.887C143.59 239.296 143.839 239.71 144.248 239.812C144.301 239.824 144.355 239.832 144.409 239.834C146.465 239.835 148.295 239.755 150.855 239.805C153.875 239.86 153.102 240.207 156.652 240.321C158.791 240.388 159.227 237.964 158.322 237.828C154.179 237.231 153.77 235.971 152.195 234.456C151.852 234.165 151.413 234.009 150.963 234.019Z" fill="#263238"/>
<path opacity="0.2" d="M145.76 227.607L145.702 230.821L150.405 230.971L150.59 228.39L145.76 227.607Z" fill="black"/>
<path d="M125.63 224.745L124.514 233.253L129.033 233.491L130.459 225.831L125.63 224.745Z" fill="#FFB573"/>
<path d="M129.905 233.043L124.25 232.301C124.037 232.272 123.833 232.396 123.758 232.598L122.132 237.062C121.985 237.457 122.186 237.897 122.581 238.044C122.632 238.062 122.684 238.076 122.738 238.084C124.781 238.316 126.609 238.442 129.146 238.779C132.141 239.173 131.335 239.431 134.849 239.944C136.967 240.25 137.672 237.89 136.788 237.654C132.738 236.595 132.474 235.297 131.079 233.615C130.771 233.287 130.353 233.083 129.905 233.043Z" fill="#263238"/>
<path opacity="0.2" d="M125.454 226.087L125.036 229.275L129.693 229.951L130.166 227.407L125.454 226.087Z" fill="black"/>
<path d="M151.934 129.4C151.934 129.4 156.903 169.691 155.909 177.638C154.915 185.586 151.271 229.63 151.271 229.63H144.977C144.977 229.63 142.768 191.658 144.977 176.755C144.977 176.755 139.123 142.535 139.786 133.926C140.448 125.315 151.543 126.538 151.934 129.4Z" fill="#263238"/>
<path opacity="0.3" d="M144.039 171.074C145.431 157.601 142.508 142.315 142.508 142.315L140.489 145.87C141.428 154.363 143.025 164.769 144.039 171.074Z" fill="black"/>
<path d="M142.964 148.11C142.981 160.058 142.844 174.317 141.799 178.602C139.9 186.383 130.571 228.417 130.571 228.417L124.317 227.695C124.317 227.695 127.14 190.947 131.043 176.397C131.043 176.397 130.22 162.635 130.132 149.933C130.132 149.933 126.384 139.667 131.15 126.869C131.15 126.869 141.782 123.854 145.159 128.118C145.159 128.118 142.956 142.977 142.964 148.11Z" fill="#263238"/>
<path d="M147.867 98.4539C147.867 98.4539 152.287 98.8295 154.707 106.492C157.127 114.154 156.512 113.001 156.512 113.001L161.632 103.785L164.925 105.403C164.925 105.403 159.906 121.036 157.003 123.822C154.1 126.608 149.716 120.606 149.544 119.538C149.372 118.469 148.508 105.331 148.508 105.331L147.867 98.4539Z" fill="#4576F2"/>
<path opacity="0.1" d="M147.867 98.4539C147.867 98.4539 152.287 98.8295 154.707 106.492C157.127 114.154 156.512 113.001 156.512 113.001L161.632 103.785L164.925 105.403C164.925 105.403 159.906 121.036 157.003 123.822C154.1 126.608 149.716 120.606 149.544 119.538C149.372 118.469 148.508 105.331 148.508 105.331L147.867 98.4539Z" fill="black"/>
<path d="M136.423 75.0308C136.423 75.0308 132.585 74.1077 131.57 83.6692C130.437 94.3449 133.788 101.488 140.236 101.428C140.236 101.428 139.215 93.1865 139.722 90.6981C140.228 88.209 138.741 77.4455 138.741 77.4455L136.423 75.0308Z" fill="#263238"/>
<path d="M152.319 134.005L129.395 133.152C129.489 127.28 131.088 112.965 130.548 110.003C130.258 108.421 129.935 106.721 129.569 104.89C129.295 103.503 128.999 102.028 128.666 100.471C131.343 99.6263 134.051 99.0141 136.784 98.6468C139.667 98.218 142.573 98.0423 145.468 98.1161C146.153 98.1558 146.767 98.2295 147.312 98.3225C149.499 98.6962 151.249 100.63 151.826 103.234C152.081 104.38 152.347 105.785 152.58 107.442C153.198 111.837 154.232 117.266 152.319 134.005Z" fill="#4576F2"/>
<g opacity="0.2">
<path d="M152.319 134.005L129.395 133.152C129.489 127.28 131.088 112.965 130.548 110.003C130.258 108.421 129.935 106.721 129.569 104.89C129.295 103.503 128.999 102.028 128.666 100.471C131.343 99.6263 134.051 99.0141 136.784 98.6468C139.667 98.218 142.573 98.0423 145.468 98.1161C146.153 98.1558 146.767 98.2295 147.312 98.3225C149.499 98.6962 151.249 100.63 151.826 103.234C152.081 104.38 152.347 105.785 152.58 107.442C153.198 111.837 154.232 117.266 152.319 134.005Z" fill="black"/>
</g>
<path d="M143.598 101.428C138.914 100.503 137.631 98.3898 137.631 98.3898C140.82 95.7655 138.661 90.6975 138.661 90.6975L144.277 92.1437C144.064 93.0725 143.947 93.8565 143.893 94.5219C143.616 97.9693 145.175 98.1084 145.175 98.1084C146.046 100.046 143.598 101.428 143.598 101.428Z" fill="#E4897B"/>
<path opacity="0.2" d="M144.278 92.1443C144.065 93.0731 143.947 93.8571 143.893 94.5225C140.052 94.2622 138.662 90.6981 138.662 90.6981L144.278 92.1443Z" fill="black"/>
<path d="M142.21 76.0359C147.173 76.1 148.736 78.7757 149.034 83.8917C149.406 90.2853 147.93 94.8052 141.744 93.361C133.34 91.3994 133.969 75.9295 142.21 76.0359Z" fill="#E4897B"/>
<path d="M145.468 83.5731C145.468 83.5731 146.139 84.8776 146.885 85.6488C146.885 85.6488 146.452 86.318 145.57 86.193L145.468 83.5731Z" fill="#DE5753"/>
<path d="M142.791 80.1782C142.791 80.1782 141.399 79.9789 140.629 80.9" stroke="#263238" stroke-width="0.6166" stroke-miterlimit="10" stroke-linecap="round" stroke-linejoin="round"/>
<path d="M146.177 79.9071C146.177 79.9071 147.057 79.5943 148.149 80.3404" stroke="#263238" stroke-width="0.6166" stroke-miterlimit="10" stroke-linecap="round" stroke-linejoin="round"/>
<path d="M136.679 84.3256C136.679 84.3256 140.262 80.7416 139.951 77.591C139.951 77.591 148.626 73.241 148.983 83.2237C148.983 83.2237 150.058 74.3775 141.53 74.0705C133.016 73.7641 132.878 86.2378 137.236 90.0109C137.236 90.0109 135.21 86.8557 136.679 84.3256Z" fill="#263238"/>
<path d="M137.476 85.3834C137.453 84.5847 136.646 83.2225 135.158 83.3648C133.618 83.5129 132.845 86.6584 136.66 87.4667C137.208 87.5828 137.524 87.0501 137.476 85.3834Z" fill="#E4897B"/>
<path d="M147.031 87.8571C146.968 88.5173 147.081 89.6737 147.081 89.6737C146.978 89.7032 146.875 89.732 146.77 89.7558C145.364 90.1154 144.592 89.8173 144.164 89.3782C143.931 89.1372 143.802 88.8494 143.729 88.6064C143.643 88.3263 143.645 88.1064 143.645 88.1064C144.504 88.3609 145.841 88.1276 146.55 87.9724C146.847 87.9103 147.031 87.8571 147.031 87.8571Z" fill="#263238"/>
<path d="M146.559 87.9724V88.5083C145.366 88.8436 144.273 88.9019 143.756 88.6064C143.669 88.3263 143.662 88.1064 143.662 88.1064C144.521 88.3609 145.962 88.1269 146.559 87.9724Z" fill="white"/>
<path d="M146.77 89.7557C145.364 90.1153 144.592 89.8173 144.164 89.3782C144.648 89.2743 145.243 89.2025 145.805 89.2884C146.235 89.3525 146.543 89.5416 146.77 89.7557Z" fill="#DE5753"/>
<path d="M148.301 82.4539C148.301 82.4539 147.366 81.6712 146.726 82.7341" stroke="#263238" stroke-width="0.4254" stroke-miterlimit="10" stroke-linecap="round" stroke-linejoin="round"/>
<path d="M144.063 82.8507C144.063 82.8507 142.573 81.6751 141.624 83.359" stroke="#263238" stroke-width="0.4254" stroke-miterlimit="10" stroke-linecap="round" stroke-linejoin="round"/>
<path d="M138.74 77.1302C138.74 77.1302 144.12 79.4468 148.034 78.7443C151.949 78.0417 144.662 74.6898 144.662 74.6898L140.936 74.4353L138.74 77.1302Z" fill="#263238"/>
<path d="M140.051 76.6705C140.195 76.9058 140.224 77.0526 140.281 77.2404C140.331 77.4186 140.36 77.5975 140.391 77.7757C140.433 78.1334 140.461 78.491 140.441 78.8455C140.417 79.5552 140.284 80.25 140.091 80.9205C139.893 81.5904 139.624 82.2327 139.316 82.8526C139.165 83.1635 138.984 83.459 138.82 83.7622L138.264 84.634L138.758 83.7282C138.901 83.4154 139.06 83.1116 139.189 82.7936C139.451 82.1609 139.672 81.5128 139.821 80.85C139.963 80.1872 140.045 79.5122 140.022 78.8449C140.019 78.5109 139.969 78.1821 139.91 77.8596C139.871 77.7013 139.834 77.5423 139.78 77.3917C139.736 77.2519 139.653 77.0686 139.612 77.0135L140.051 76.6705Z" fill="#263238"/>
<path d="M139.541 76.7609C139.776 76.9404 139.897 77.0788 140.069 77.2327C140.229 77.3814 140.391 77.5269 140.557 77.6679C140.889 77.9487 141.235 78.2141 141.604 78.4461C142.336 78.9154 143.159 79.2634 144.041 79.3807C143.152 79.3577 142.271 79.0935 141.467 78.6897C141.062 78.491 140.676 78.2551 140.303 78.0019C140.117 77.875 139.935 77.7429 139.756 77.6083C139.585 77.4814 139.382 77.3173 139.255 77.2416L139.541 76.7609Z" fill="#263238"/>
<path d="M173.229 121.229C173.229 121.229 174.24 119.905 174.98 119.823C175.721 119.741 181.422 120.603 181.691 121.179C181.96 121.755 179.273 124.285 178.337 124.449C177.402 124.613 173.965 124.178 173.663 123.909L173.229 121.229Z" fill="#E4897B"/>
<path d="M175.669 121.998C175.669 121.998 176.885 121.249 176.712 120.592C176.589 120.128 177.664 120.883 177.885 120.458C178.075 120.094 177.408 119.138 177.408 119.138C176.576 119.028 174.761 119.236 173.154 121.196L175.669 121.998Z" fill="#E4897B"/>
<path d="M173.236 121.196L169.708 122.392C169.708 122.392 170.14 125.307 170.32 125.235C170.5 125.164 174.761 123.442 174.761 123.442L173.236 121.196Z" fill="#E4897B"/>
<path d="M128.906 100.381C128.906 100.381 125.915 101.742 126.649 106.402C127.839 113.962 147.151 129.784 150.879 129.985C154.605 130.187 172.304 125.648 172.333 125.346C172.363 125.044 171.26 121.218 171.26 121.218C171.26 121.218 153.886 122.994 151.368 121.887C148.849 120.779 136.311 99.8205 128.906 100.381Z" fill="#4576F2"/>
<path opacity="0.1" d="M128.906 100.381C128.906 100.381 125.915 101.742 126.649 106.402C127.839 113.962 147.151 129.784 150.879 129.985C154.605 130.187 172.304 125.648 172.333 125.346C172.363 125.044 171.26 121.218 171.26 121.218C171.26 121.218 153.886 122.994 151.368 121.887C148.849 120.779 136.311 99.8205 128.906 100.381Z" fill="black"/>
</g>
<defs>
<clipPath id="clip0_1703_29375">
<rect width="375" height="250" fill="white"/>
</clipPath>
</defs>
</svg>
