<svg width="18" height="16" viewBox="0 0 18 16" fill="none" xmlns="http://www.w3.org/2000/svg">
<path d="M11.1031 14.5V12.9376C11.1031 12.2699 10.7697 11.6464 10.2145 11.2757C7.71879 9.60943 4.48155 9.54814 1.92457 11.1188L1.70527 11.2535C1.08257 11.636 0.703125 12.3143 0.703125 13.0451V14.5M2.93182 4.47146C2.93182 6.11255 4.26218 7.44291 5.90326 7.44291C7.54433 7.44291 8.87469 6.11255 8.87469 4.47146C8.87469 2.83037 7.54433 1.5 5.90326 1.5C4.26218 1.5 2.93182 2.83037 2.93182 4.47146Z" stroke="#FCFCFC" stroke-width="1.4" stroke-linecap="square"/>
<path d="M14.5177 8.85266C14.3024 9.04912 13.9614 9.04912 13.7462 8.85266L12.0101 7.26799C10.8569 6.10595 12.5521 3.87482 14.1319 5.67986C15.7118 3.87482 17.3993 6.1137 16.2538 7.26799L14.5177 8.85266Z" stroke="#FCFCFC" stroke-width="1.4" stroke-linecap="square" stroke-linejoin="round"/>
</svg>
