<svg width="10" height="12" viewBox="0 0 10 12" fill="none" xmlns="http://www.w3.org/2000/svg">
<path d="M6.4535 5.40736C6.4535 6.10283 5.89005 6.66661 5.195 6.66661C4.49995 6.66661 3.9365 6.10283 3.9365 5.40736C3.9365 4.7119 4.49995 4.14812 5.195 4.14812C5.89005 4.14812 6.4535 4.7119 6.4535 5.40736Z" stroke="#1D1D1D" stroke-width="1.2" stroke-linecap="square"/>
<path d="M9.39 5.27979C9.39 6.71935 7.83397 8.86602 6.61727 10.3245C5.86594 11.2252 4.52406 11.2252 3.77273 10.3245C2.55603 8.86602 1 6.71935 1 5.27979C1 2.91613 2.87817 1 5.195 1C7.51183 1 9.39 2.91613 9.39 5.27979Z" stroke="#1D1D1D" stroke-width="1.2" stroke-linecap="square"/>
</svg>
