<svg width="185" height="146" viewBox="0 0 185 146" fill="none" xmlns="http://www.w3.org/2000/svg">
<g filter="url(#filter0_d_4955_6893)">
<rect x="60.79" y="38" width="108.215" height="26" rx="12" fill="#FCFCFC"/>
<path d="M81.0043 56.1072H74.79C73.6855 56.1072 72.79 55.2117 72.79 54.1072V47.8929C72.79 46.7883 73.6855 45.8929 74.79 45.8929H81.0043C82.1089 45.8929 83.0043 46.7883 83.0043 47.8929V54.1072C83.0043 55.2117 82.1089 56.1072 81.0043 56.1072Z" stroke="#FF7A7A" stroke-width="1.2" stroke-linecap="round" stroke-linejoin="round"/>
<path d="M73.3975 55.5L79.5082 50.7014C79.5788 50.6426 79.6677 50.6104 79.7596 50.6104C79.8515 50.6104 79.9404 50.6426 80.011 50.7014L83.0046 52.8464" stroke="#FF7A7A" stroke-width="1.2" stroke-linecap="round" stroke-linejoin="round"/>
<path d="M75.9325 50.2143C76.5834 50.2143 77.111 49.6867 77.111 49.0357C77.111 48.3848 76.5834 47.8572 75.9325 47.8572C75.2816 47.8572 74.7539 48.3848 74.7539 49.0357C74.7539 49.6867 75.2816 50.2143 75.9325 50.2143Z" stroke="#FF7A7A" stroke-width="1.2" stroke-linecap="round" stroke-linejoin="round"/>
<path d="M96.6384 48.36H93.3684V50.34H96.1984V51.35H93.3684V54.5H92.2184V47.86C92.2184 47.7 92.2684 47.5767 92.3684 47.49C92.4751 47.4033 92.6017 47.36 92.7484 47.36H96.6384V48.36ZM99.5011 54.63C98.7545 54.63 98.1578 54.39 97.7111 53.91C97.2645 53.43 97.0445 52.7933 97.0511 52C97.0578 51.2 97.2811 50.5633 97.7211 50.09C98.1678 49.61 98.7611 49.37 99.5011 49.37C100.254 49.37 100.851 49.61 101.291 50.09C101.738 50.5633 101.961 51.2 101.961 52C101.961 52.7933 101.738 53.43 101.291 53.91C100.851 54.39 100.254 54.63 99.5011 54.63ZM98.1311 52C98.1311 53.14 98.5878 53.71 99.5011 53.71C100.414 53.71 100.871 53.14 100.871 52C100.871 50.86 100.414 50.29 99.5011 50.29C99.0545 50.29 98.7145 50.4367 98.4811 50.73C98.2478 51.0167 98.1311 51.44 98.1311 52ZM105.956 53.33L106.336 54.14C105.903 54.4533 105.416 54.61 104.876 54.61C104.35 54.61 103.95 54.4533 103.676 54.14C103.403 53.82 103.266 53.3833 103.266 52.83V50.3H102.456V49.5H103.266V47.95H104.346V49.5H106.046V50.3H104.346V52.8C104.346 53.0867 104.42 53.2967 104.566 53.43C104.72 53.5567 104.896 53.62 105.096 53.62C105.383 53.62 105.67 53.5233 105.956 53.33ZM109.159 54.63C108.413 54.63 107.816 54.39 107.369 53.91C106.923 53.43 106.703 52.7933 106.709 52C106.716 51.2 106.939 50.5633 107.379 50.09C107.826 49.61 108.419 49.37 109.159 49.37C109.913 49.37 110.509 49.61 110.949 50.09C111.396 50.5633 111.619 51.2 111.619 52C111.619 52.7933 111.396 53.43 110.949 53.91C110.509 54.39 109.913 54.63 109.159 54.63ZM107.789 52C107.789 53.14 108.246 53.71 109.159 53.71C110.073 53.71 110.529 53.14 110.529 52C110.529 50.86 110.073 50.29 109.159 50.29C108.713 50.29 108.373 50.4367 108.139 50.73C107.906 51.0167 107.789 51.44 107.789 52ZM114.263 54.61C113.41 54.61 112.736 54.35 112.243 53.83L112.713 53.14C113.193 53.5467 113.703 53.75 114.243 53.75C114.51 53.75 114.74 53.6967 114.933 53.59C115.126 53.4833 115.223 53.3267 115.223 53.12C115.223 53.0533 115.21 52.9933 115.183 52.94C115.163 52.88 115.126 52.8267 115.073 52.78C115.026 52.7333 114.98 52.6933 114.933 52.66C114.886 52.6267 114.816 52.5933 114.723 52.56C114.636 52.5267 114.566 52.5 114.513 52.48C114.46 52.46 114.376 52.4333 114.263 52.4C114.156 52.3667 114.08 52.3433 114.033 52.33C113.553 52.1767 113.18 51.9933 112.913 51.78C112.653 51.5667 112.523 51.2633 112.523 50.87C112.523 50.3967 112.706 50.03 113.073 49.77C113.44 49.5033 113.903 49.37 114.463 49.37C115.15 49.37 115.743 49.5567 116.243 49.93L115.793 50.63C115.36 50.3433 114.926 50.2 114.493 50.2C114.226 50.2 114.01 50.2567 113.843 50.37C113.676 50.4767 113.593 50.6167 113.593 50.79C113.593 50.89 113.616 50.98 113.663 51.06C113.716 51.1333 113.803 51.2 113.923 51.26C114.043 51.32 114.14 51.3633 114.213 51.39C114.293 51.4167 114.423 51.4567 114.603 51.51C114.883 51.5967 115.1 51.6733 115.253 51.74C115.413 51.8067 115.586 51.9 115.773 52.02C115.966 52.1333 116.106 52.2767 116.193 52.45C116.28 52.6167 116.323 52.8167 116.323 53.05C116.323 53.5433 116.123 53.9267 115.723 54.2C115.323 54.4733 114.836 54.61 114.263 54.61ZM121.787 53.7C122.334 53.7 122.847 53.5067 123.327 53.12L123.827 53.85C123.234 54.3567 122.534 54.61 121.727 54.61C121.007 54.61 120.421 54.3833 119.967 53.93C119.521 53.47 119.297 52.85 119.297 52.07C119.297 51.31 119.524 50.67 119.977 50.15C120.437 49.63 121.071 49.37 121.877 49.37C122.431 49.37 122.907 49.5233 123.307 49.83C123.707 50.13 123.907 50.5533 123.907 51.1C123.907 51.5 123.784 51.8233 123.537 52.07C123.291 52.3167 122.931 52.44 122.457 52.44H120.347C120.481 53.28 120.961 53.7 121.787 53.7ZM121.847 50.21C121.447 50.21 121.107 50.34 120.827 50.6C120.554 50.86 120.387 51.2167 120.327 51.67H122.257C122.457 51.67 122.614 51.6167 122.727 51.51C122.841 51.4033 122.897 51.25 122.897 51.05C122.897 50.8167 122.801 50.62 122.607 50.46C122.421 50.2933 122.167 50.21 121.847 50.21ZM131.33 47.36H132.59L130.48 54.02C130.353 54.4133 130.033 54.61 129.52 54.61C129.013 54.61 128.697 54.4133 128.57 54.02L126.45 47.36L127.75 47.35L129.54 53.38L131.33 47.36ZM132.945 48.52L134.615 46.92L135.255 47.7L133.395 49.06L132.945 48.52ZM133.425 54.5V49.5H134.495V54.5H133.425ZM139.227 47.36H140.307V54.5H139.267V54C138.8 54.42 138.277 54.63 137.697 54.63C137.077 54.63 136.567 54.3967 136.167 53.93C135.773 53.4633 135.577 52.8467 135.577 52.08C135.577 51.26 135.797 50.6033 136.237 50.11C136.677 49.6167 137.243 49.37 137.937 49.37C138.43 49.37 138.86 49.5033 139.227 49.77V47.36ZM137.927 53.7C138.42 53.7 138.853 53.4933 139.227 53.08V50.79C138.88 50.4633 138.48 50.3 138.027 50.3C137.62 50.3 137.293 50.45 137.047 50.75C136.807 51.05 136.687 51.4867 136.687 52.06C136.687 52.5733 136.793 52.9767 137.007 53.27C137.227 53.5567 137.533 53.7 137.927 53.7ZM143.867 53.7C144.414 53.7 144.927 53.5067 145.407 53.12L145.907 53.85C145.314 54.3567 144.614 54.61 143.807 54.61C143.087 54.61 142.501 54.3833 142.047 53.93C141.601 53.47 141.377 52.85 141.377 52.07C141.377 51.31 141.604 50.67 142.057 50.15C142.517 49.63 143.151 49.37 143.957 49.37C144.511 49.37 144.987 49.5233 145.387 49.83C145.787 50.13 145.987 50.5533 145.987 51.1C145.987 51.5 145.864 51.8233 145.617 52.07C145.371 52.3167 145.011 52.44 144.537 52.44H142.427C142.561 53.28 143.041 53.7 143.867 53.7ZM143.927 50.21C143.527 50.21 143.187 50.34 142.907 50.6C142.634 50.86 142.467 51.2167 142.407 51.67H144.337C144.537 51.67 144.694 51.6167 144.807 51.51C144.921 51.4033 144.977 51.25 144.977 51.05C144.977 50.8167 144.881 50.62 144.687 50.46C144.501 50.2933 144.247 50.21 143.927 50.21ZM149.13 54.63C148.383 54.63 147.787 54.39 147.34 53.91C146.893 53.43 146.673 52.7933 146.68 52C146.687 51.2 146.91 50.5633 147.35 50.09C147.797 49.61 148.39 49.37 149.13 49.37C149.883 49.37 150.48 49.61 150.92 50.09C151.367 50.5633 151.59 51.2 151.59 52C151.59 52.7933 151.367 53.43 150.92 53.91C150.48 54.39 149.883 54.63 149.13 54.63ZM147.76 52C147.76 53.14 148.217 53.71 149.13 53.71C150.043 53.71 150.5 53.14 150.5 52C150.5 50.86 150.043 50.29 149.13 50.29C148.683 50.29 148.343 50.4367 148.11 50.73C147.877 51.0167 147.76 51.44 147.76 52ZM154.234 54.61C153.38 54.61 152.707 54.35 152.214 53.83L152.684 53.14C153.164 53.5467 153.674 53.75 154.214 53.75C154.48 53.75 154.71 53.6967 154.904 53.59C155.097 53.4833 155.194 53.3267 155.194 53.12C155.194 53.0533 155.18 52.9933 155.154 52.94C155.134 52.88 155.097 52.8267 155.044 52.78C154.997 52.7333 154.95 52.6933 154.904 52.66C154.857 52.6267 154.787 52.5933 154.694 52.56C154.607 52.5267 154.537 52.5 154.484 52.48C154.43 52.46 154.347 52.4333 154.234 52.4C154.127 52.3667 154.05 52.3433 154.004 52.33C153.524 52.1767 153.15 51.9933 152.884 51.78C152.624 51.5667 152.494 51.2633 152.494 50.87C152.494 50.3967 152.677 50.03 153.044 49.77C153.41 49.5033 153.874 49.37 154.434 49.37C155.12 49.37 155.714 49.5567 156.214 49.93L155.764 50.63C155.33 50.3433 154.897 50.2 154.464 50.2C154.197 50.2 153.98 50.2567 153.814 50.37C153.647 50.4767 153.564 50.6167 153.564 50.79C153.564 50.89 153.587 50.98 153.634 51.06C153.687 51.1333 153.774 51.2 153.894 51.26C154.014 51.32 154.11 51.3633 154.184 51.39C154.264 51.4167 154.394 51.4567 154.574 51.51C154.854 51.5967 155.07 51.6733 155.224 51.74C155.384 51.8067 155.557 51.9 155.744 52.02C155.937 52.1333 156.077 52.2767 156.164 52.45C156.25 52.6167 156.294 52.8167 156.294 53.05C156.294 53.5433 156.094 53.9267 155.694 54.2C155.294 54.4733 154.807 54.61 154.234 54.61Z" fill="#1D1D1D"/>
</g>
<defs>
<filter id="filter0_d_4955_6893" x="0.790039" y="0" width="228.215" height="146" filterUnits="userSpaceOnUse" color-interpolation-filters="sRGB">
<feFlood flood-opacity="0" result="BackgroundImageFix"/>
<feColorMatrix in="SourceAlpha" type="matrix" values="0 0 0 0 0 0 0 0 0 0 0 0 0 0 0 0 0 0 127 0" result="hardAlpha"/>
<feOffset dy="22"/>
<feGaussianBlur stdDeviation="30"/>
<feColorMatrix type="matrix" values="0 0 0 0 0 0 0 0 0 0 0 0 0 0 0 0 0 0 0.2 0"/>
<feBlend mode="normal" in2="BackgroundImageFix" result="effect1_dropShadow_4955_6893"/>
<feBlend mode="normal" in="SourceGraphic" in2="effect1_dropShadow_4955_6893" result="shape"/>
</filter>
</defs>
</svg>
