<svg width="141" height="146" viewBox="0 0 141 146" fill="none" xmlns="http://www.w3.org/2000/svg">
<g filter="url(#filter0_d_4955_6889)">
<rect x="60.0049" y="38" width="65" height="26" rx="12" fill="#FCFCFC"/>
<path d="M80.3215 49.7892L81.5695 48.5399C82.15 47.9588 82.15 47.0168 81.5695 46.4358C80.9891 45.8547 80.048 45.8547 79.4675 46.4358L78.2195 47.6851M80.3215 49.7892L75.6288 54.4866C74.8791 55.237 73.9112 55.7303 72.864 55.8958L72.2197 55.9977C72.0986 56.0168 71.9925 55.9154 72.0061 55.7934L72.0476 55.4192C72.1734 54.286 72.6807 53.2293 73.4862 52.4231L78.2195 47.6851M80.3215 49.7892L78.2195 47.6851" stroke="#7F5CE1" stroke-width="1.2" stroke-linecap="square" stroke-linejoin="round"/>
<path d="M95.9361 47.36H97.0061V54.17C97.0061 54.29 96.9494 54.3867 96.8361 54.46C96.7227 54.5333 96.5827 54.57 96.4161 54.57C96.0894 54.57 95.8461 54.4533 95.6861 54.22L92.1361 49.2V54.5H91.0661V47.79C91.0661 47.6367 91.1227 47.52 91.2361 47.44C91.3494 47.36 91.4994 47.32 91.6861 47.32C91.9061 47.32 92.0661 47.3567 92.1661 47.43C92.2727 47.4967 92.3927 47.6233 92.5261 47.81L95.9361 52.56V47.36ZM100.644 54.63C99.897 54.63 99.3004 54.39 98.8537 53.91C98.407 53.43 98.187 52.7933 98.1937 52C98.2004 51.2 98.4237 50.5633 98.8637 50.09C99.3104 49.61 99.9037 49.37 100.644 49.37C101.397 49.37 101.994 49.61 102.434 50.09C102.88 50.5633 103.104 51.2 103.104 52C103.104 52.7933 102.88 53.43 102.434 53.91C101.994 54.39 101.397 54.63 100.644 54.63ZM99.2737 52C99.2737 53.14 99.7304 53.71 100.644 53.71C101.557 53.71 102.014 53.14 102.014 52C102.014 50.86 101.557 50.29 100.644 50.29C100.197 50.29 99.857 50.4367 99.6237 50.73C99.3904 51.0167 99.2737 51.44 99.2737 52ZM107.099 53.33L107.479 54.14C107.046 54.4533 106.559 54.61 106.019 54.61C105.492 54.61 105.092 54.4533 104.819 54.14C104.546 53.82 104.409 53.3833 104.409 52.83V50.3H103.599V49.5H104.409V47.95H105.489V49.5H107.189V50.3H105.489V52.8C105.489 53.0867 105.562 53.2967 105.709 53.43C105.862 53.5567 106.039 53.62 106.239 53.62C106.526 53.62 106.812 53.5233 107.099 53.33ZM110.023 49.37C110.69 49.37 111.216 49.55 111.603 49.91C111.99 50.27 112.183 50.7833 112.183 51.45V54.5H111.193V53.74C110.813 54.3267 110.246 54.62 109.493 54.62C108.98 54.62 108.563 54.48 108.243 54.2C107.93 53.9133 107.773 53.54 107.773 53.08C107.773 52.5067 108 52.09 108.453 51.83C108.906 51.57 109.493 51.44 110.213 51.44C110.5 51.44 110.816 51.4633 111.163 51.51V51.4C111.163 51.0333 111.06 50.7567 110.853 50.57C110.646 50.3767 110.353 50.28 109.973 50.28C109.433 50.28 108.92 50.4767 108.433 50.87L107.913 50.17C108.466 49.6367 109.17 49.37 110.023 49.37ZM109.723 53.79C110.163 53.79 110.506 53.6433 110.753 53.35C111 53.05 111.136 52.6633 111.163 52.19C110.816 52.1567 110.53 52.14 110.303 52.14C109.343 52.14 108.863 52.4367 108.863 53.03C108.863 53.2567 108.94 53.44 109.093 53.58C109.253 53.72 109.463 53.79 109.723 53.79Z" fill="#1D1D1D"/>
</g>
<defs>
<filter id="filter0_d_4955_6889" x="0.00488281" y="0" width="185" height="146" filterUnits="userSpaceOnUse" color-interpolation-filters="sRGB">
<feFlood flood-opacity="0" result="BackgroundImageFix"/>
<feColorMatrix in="SourceAlpha" type="matrix" values="0 0 0 0 0 0 0 0 0 0 0 0 0 0 0 0 0 0 127 0" result="hardAlpha"/>
<feOffset dy="22"/>
<feGaussianBlur stdDeviation="30"/>
<feColorMatrix type="matrix" values="0 0 0 0 0 0 0 0 0 0 0 0 0 0 0 0 0 0 0.2 0"/>
<feBlend mode="normal" in2="BackgroundImageFix" result="effect1_dropShadow_4955_6889"/>
<feBlend mode="normal" in="SourceGraphic" in2="effect1_dropShadow_4955_6889" result="shape"/>
</filter>
</defs>
</svg>
