<svg width="145" height="146" viewBox="0 0 145 146" fill="none" xmlns="http://www.w3.org/2000/svg">
<g filter="url(#filter0_d_4955_6900)">
<rect x="60.0049" y="38" width="68.9999" height="26" rx="12" fill="#FCFCFC"/>
<path d="M80.9167 56.1428L78.3085 53.7724C76.8695 52.3412 78.983 49.613 80.9167 51.8493C82.8953 49.6578 84.9639 52.386 83.5249 53.7724L80.9167 56.1428Z" stroke="#01AEA4" stroke-width="1.2" stroke-linecap="round" stroke-linejoin="round"/>
<path d="M72.0049 50.1429H73.2906L75.0049 53.1428L78.862 45.8572L80.5762 49.2857" stroke="#01AEA4" stroke-width="1.2" stroke-linecap="round" stroke-linejoin="round"/>
<path d="M95.732 47.36C96.5054 47.36 97.0987 47.5767 97.512 48.01C97.9254 48.4433 98.132 48.99 98.132 49.65C98.132 50.39 97.9187 50.96 97.492 51.36C97.0654 51.76 96.452 51.96 95.652 51.96H94.342V54.5H93.192V47.85C93.192 47.71 93.2387 47.5933 93.332 47.5C93.4254 47.4067 93.542 47.36 93.682 47.36H95.732ZM95.632 50.97C96.512 50.97 96.952 50.5267 96.952 49.64C96.952 49.2333 96.8354 48.9167 96.602 48.69C96.3754 48.4633 96.0487 48.35 95.622 48.35H94.342V50.97H95.632ZM102.437 49.5H103.517V54.51H102.477V53.81C101.863 54.35 101.24 54.62 100.607 54.62C100.107 54.62 99.7167 54.4867 99.4367 54.22C99.1634 53.9467 99.0267 53.55 99.0267 53.03V49.5H100.117V52.79C100.117 53.3833 100.367 53.68 100.867 53.68C101.327 53.68 101.85 53.4367 102.437 52.95V49.5ZM104.867 54.5V47.36H105.957V54.5H104.867ZM108.889 54.61C108.036 54.61 107.362 54.35 106.869 53.83L107.339 53.14C107.819 53.5467 108.329 53.75 108.869 53.75C109.136 53.75 109.366 53.6967 109.559 53.59C109.752 53.4833 109.849 53.3267 109.849 53.12C109.849 53.0533 109.836 52.9933 109.809 52.94C109.789 52.88 109.752 52.8267 109.699 52.78C109.652 52.7333 109.606 52.6933 109.559 52.66C109.512 52.6267 109.442 52.5933 109.349 52.56C109.262 52.5267 109.192 52.5 109.139 52.48C109.086 52.46 109.002 52.4333 108.889 52.4C108.782 52.3667 108.706 52.3433 108.659 52.33C108.179 52.1767 107.806 51.9933 107.539 51.78C107.279 51.5667 107.149 51.2633 107.149 50.87C107.149 50.3967 107.332 50.03 107.699 49.77C108.066 49.5033 108.529 49.37 109.089 49.37C109.776 49.37 110.369 49.5567 110.869 49.93L110.419 50.63C109.986 50.3433 109.552 50.2 109.119 50.2C108.852 50.2 108.636 50.2567 108.469 50.37C108.302 50.4767 108.219 50.6167 108.219 50.79C108.219 50.89 108.242 50.98 108.289 51.06C108.342 51.1333 108.429 51.2 108.549 51.26C108.669 51.32 108.766 51.3633 108.839 51.39C108.919 51.4167 109.049 51.4567 109.229 51.51C109.509 51.5967 109.726 51.6733 109.879 51.74C110.039 51.8067 110.212 51.9 110.399 52.02C110.592 52.1333 110.732 52.2767 110.819 52.45C110.906 52.6167 110.949 52.8167 110.949 53.05C110.949 53.5433 110.749 53.9267 110.349 54.2C109.949 54.4733 109.462 54.61 108.889 54.61ZM114.187 53.7C114.733 53.7 115.247 53.5067 115.727 53.12L116.227 53.85C115.633 54.3567 114.933 54.61 114.127 54.61C113.407 54.61 112.82 54.3833 112.367 53.93C111.92 53.47 111.697 52.85 111.697 52.07C111.697 51.31 111.923 50.67 112.377 50.15C112.837 49.63 113.47 49.37 114.277 49.37C114.83 49.37 115.307 49.5233 115.707 49.83C116.107 50.13 116.307 50.5533 116.307 51.1C116.307 51.5 116.183 51.8233 115.937 52.07C115.69 52.3167 115.33 52.44 114.857 52.44H112.747C112.88 53.28 113.36 53.7 114.187 53.7ZM114.247 50.21C113.847 50.21 113.507 50.34 113.227 50.6C112.953 50.86 112.787 51.2167 112.727 51.67H114.657C114.857 51.67 115.013 51.6167 115.127 51.51C115.24 51.4033 115.297 51.25 115.297 51.05C115.297 50.8167 115.2 50.62 115.007 50.46C114.82 50.2933 114.567 50.21 114.247 50.21Z" fill="#1D1D1D"/>
</g>
<defs>
<filter id="filter0_d_4955_6900" x="0.00488281" y="0" width="189" height="146" filterUnits="userSpaceOnUse" color-interpolation-filters="sRGB">
<feFlood flood-opacity="0" result="BackgroundImageFix"/>
<feColorMatrix in="SourceAlpha" type="matrix" values="0 0 0 0 0 0 0 0 0 0 0 0 0 0 0 0 0 0 127 0" result="hardAlpha"/>
<feOffset dy="22"/>
<feGaussianBlur stdDeviation="30"/>
<feColorMatrix type="matrix" values="0 0 0 0 0 0 0 0 0 0 0 0 0 0 0 0 0 0 0.2 0"/>
<feBlend mode="normal" in2="BackgroundImageFix" result="effect1_dropShadow_4955_6900"/>
<feBlend mode="normal" in="SourceGraphic" in2="effect1_dropShadow_4955_6900" result="shape"/>
</filter>
</defs>
</svg>
