<svg width="15" height="14" viewBox="0 0 15 14" fill="none" xmlns="http://www.w3.org/2000/svg">
<path d="M13.375 5.67793C13.375 6.51111 12.672 7.18653 11.8049 7.18653C10.9378 7.18653 10.2348 6.51111 10.2348 5.67793C10.2348 4.84476 10.9378 4.16934 11.8049 4.16934C12.672 4.16934 13.375 4.84476 13.375 5.67793Z" fill="#4576F2"/>
<path d="M5.92752 7.93795L5.71574 7.16649L5.92752 7.93795ZM3.37307 7.91399L3.1745 8.68895H3.1745L3.37307 7.91399ZM6.70061 0.714374C6.26673 0.630995 5.8474 0.91514 5.76402 1.34903C5.68064 1.78292 5.96478 2.20225 6.39867 2.28563L6.70061 0.714374ZM3.12089 2.29338C3.55716 2.22352 3.85419 1.81321 3.78433 1.37694C3.71446 0.940675 3.30416 0.643644 2.86789 0.713508L3.12089 2.29338ZM2.10234 1.88615L1.6148 1.25188L1.6148 1.25188L2.10234 1.88615ZM7.31467 1.86246L7.82948 1.25011L7.82948 1.25011L7.31467 1.86246ZM8.66232 12.4788L8.74724 13.2743L8.66232 12.4788ZM7.87967 3.05883H7.07967V5.45129H7.87967H8.67967V3.05883H7.87967ZM1.375 5.41515H2.175V3.3402H1.375H0.575V5.41515H1.375ZM5.92752 7.93795L5.71574 7.16649L4.5277 7.49264L4.73949 8.26409L4.95127 9.03555L6.1393 8.70941L5.92752 7.93795ZM4.73949 8.26409L4.93805 7.48913L3.57163 7.13902L3.37307 7.91399L3.1745 8.68895L4.54092 9.03906L4.73949 8.26409ZM4.73949 8.26409H3.93949V9.10526H4.73949H5.53949V8.26409H4.73949ZM2.10234 1.88615L2.58988 2.52042C2.74125 2.40407 2.92387 2.32493 3.12089 2.29338L2.99439 1.50344L2.86789 0.713508C2.41194 0.786523 1.98034 0.970894 1.6148 1.25188L2.10234 1.88615ZM6.54964 1.5L6.39867 2.28563C6.55037 2.31478 6.6884 2.3811 6.79985 2.4748L7.31467 1.86246L7.82948 1.25011C7.50563 0.977842 7.11611 0.794218 6.70061 0.714374L6.54964 1.5ZM8.66232 12.4788L8.74724 13.2743C10.9174 13.0426 12.6049 11.269 12.6049 9.10526H11.8049H11.0049C11.0049 10.4007 9.98539 11.533 8.57739 11.6834L8.66232 12.4788ZM1.375 3.3402H2.175C2.175 3.0302 2.32138 2.72681 2.58988 2.52042L2.10234 1.88615L1.6148 1.25188C0.963854 1.75223 0.575 2.51885 0.575 3.3402H1.375ZM1.375 5.41515H0.575C0.575 6.97157 1.66149 8.30129 3.1745 8.68895L3.37307 7.91399L3.57163 7.13902C2.72814 6.9229 2.175 6.20205 2.175 5.41515H1.375ZM4.73949 9.10526H3.93949C3.93949 11.6384 6.21702 13.5444 8.74724 13.2743L8.66232 12.4788L8.57739 11.6834C6.92231 11.8601 5.53949 10.6182 5.53949 9.10526H4.73949ZM7.87967 5.45129H7.07967C7.07967 6.22693 6.54227 6.93959 5.71574 7.16649L5.92752 7.93795L6.1393 8.70941C7.62378 8.30189 8.67967 6.985 8.67967 5.45129H7.87967ZM7.87967 3.05883H8.67967C8.67967 2.35794 8.36448 1.6999 7.82948 1.25011L7.31467 1.86246L6.79985 2.4748C6.98296 2.62875 7.07967 2.8429 7.07967 3.05883H7.87967ZM13.375 5.67793H12.575C12.575 6.03945 12.2606 6.38653 11.8049 6.38653V7.18653V7.98653C13.0834 7.98653 14.175 6.98276 14.175 5.67793H13.375ZM11.8049 7.18653V6.38653C11.3492 6.38653 11.0348 6.03945 11.0348 5.67793H10.2348H9.43481C9.43481 6.98276 10.5264 7.98653 11.8049 7.98653V7.18653ZM10.2348 5.67793H11.0348C11.0348 5.31641 11.3492 4.96934 11.8049 4.96934V4.16934V3.36934C10.5264 3.36934 9.43481 4.3731 9.43481 5.67793H10.2348ZM11.8049 4.16934V4.96934C12.2606 4.96934 12.575 5.31641 12.575 5.67793H13.375H14.175C14.175 4.3731 13.0834 3.36934 11.8049 3.36934V4.16934ZM11.8049 9.10526H12.6049V7.18653H11.8049H11.0049V9.10526H11.8049Z" fill="#4576F2"/>
</svg>
