<svg width="16" height="16" viewBox="0 0 16 16" fill="none" xmlns="http://www.w3.org/2000/svg">
<path d="M14.375 7.93999C14.376 7.80119 14.348 7.66371 14.2929 7.53631C14.2378 7.40891 14.1568 7.29437 14.055 7.19999L7.87501 1.5L1.69502 7.19999C1.59325 7.29437 1.51224 7.40891 1.45714 7.53631C1.40205 7.66371 1.37408 7.80119 1.37502 7.93999V13.5C1.37502 13.7652 1.48038 14.0196 1.66792 14.2071C1.85545 14.3946 2.10981 14.5 2.37502 14.5H13.375C13.6402 14.5 13.8946 14.3946 14.0821 14.2071C14.2697 14.0196 14.375 13.7652 14.375 13.5V7.93999Z" fill="#4576F2" stroke="#4576F2" stroke-width="2" stroke-linecap="square" stroke-linejoin="round"/>
<path d="M7.875 14.5V10.5V14.5Z" fill="#4576F2"/>
<path d="M7.875 14.5V10.5" stroke="#F0F4FF" stroke-width="2" stroke-linecap="round" stroke-linejoin="round"/>
</svg>
